<?xml version="1.0" encoding="UTF-8" standalone="no"?>
<!DOCTYPE svg PUBLIC "-//W3C//DTD SVG 1.1//EN"
 "http://www.w3.org/Graphics/SVG/1.1/DTD/svg11.dtd">
<!-- Generated by graphviz version 2.43.0 (0)
 -->
<!-- Title: CapsuleCollider3D::ClosestPtSegmentSegment Pages: 1 -->
<svg width="1247pt" height="334pt"
 viewBox="0.00 0.00 1247.00 334.00" xmlns="http://www.w3.org/2000/svg" xmlns:xlink="http://www.w3.org/1999/xlink">
<g id="graph0" class="graph" transform="scale(1 1) rotate(0) translate(4 330)">
<title>CapsuleCollider3D::ClosestPtSegmentSegment</title>
<!-- Node1 -->
<g id="Node000001" class="node">
<title>Node1</title>
<g id="a_Node000001"><a xlink:title=" ">
<polygon fill="#999999" stroke="#666666" points="1239,-151.5 1090,-151.5 1090,-121.5 1239,-121.5 1239,-151.5"/>
<text text-anchor="start" x="1098" y="-139.5" font-family="Helvetica,sans-Serif" font-size="10.00">CapsuleCollider3D::</text>
<text text-anchor="middle" x="1164.5" y="-128.5" font-family="Helvetica,sans-Serif" font-size="10.00">ClosestPtSegmentSegment</text>
</a>
</g>
</g>
<!-- Node2 -->
<g id="Node000002" class="node">
<title>Node2</title>
<g id="a_Node000002"><a xlink:href="classCapsuleCollider3D.html#a360f57458300e41705530651c3bbafe0" target="_top" xlink:title=" ">
<polygon fill="white" stroke="#666666" points="1054,-227.5 885,-227.5 885,-197.5 1054,-197.5 1054,-227.5"/>
<text text-anchor="start" x="893" y="-215.5" font-family="Helvetica,sans-Serif" font-size="10.00">CapsuleCollider3D::</text>
<text text-anchor="middle" x="969.5" y="-204.5" font-family="Helvetica,sans-Serif" font-size="10.00">CalculateHorizontalPenetration</text>
</a>
</g>
</g>
<!-- Node1&#45;&gt;Node2 -->
<g id="edge1_Node000001_Node000002" class="edge">
<title>Node1&#45;&gt;Node2</title>
<g id="a_edge1_Node000001_Node000002"><a xlink:title=" ">
<path fill="none" stroke="#63b8ff" d="M1115.93,-155.23C1082.97,-168.21 1039.65,-185.27 1008.88,-197.39"/>
<polygon fill="#63b8ff" stroke="#63b8ff" points="1117.35,-158.44 1125.37,-151.52 1114.78,-151.92 1117.35,-158.44"/>
</a>
</g>
</g>
<!-- Node12 -->
<g id="Node000012" class="node">
<title>Node12</title>
<g id="a_Node000012"><a xlink:href="classCapsuleCollider3D.html#a382c9f3c04adf1f2f60bb58ec13c4d72" target="_top" xlink:title=" ">
<polygon fill="white" stroke="#666666" points="1029,-151.5 910,-151.5 910,-121.5 1029,-121.5 1029,-151.5"/>
<text text-anchor="start" x="918" y="-139.5" font-family="Helvetica,sans-Serif" font-size="10.00">CapsuleCollider3D::</text>
<text text-anchor="middle" x="969.5" y="-128.5" font-family="Helvetica,sans-Serif" font-size="10.00">CalculatePenetration</text>
</a>
</g>
</g>
<!-- Node1&#45;&gt;Node12 -->
<g id="edge11_Node000001_Node000012" class="edge">
<title>Node1&#45;&gt;Node12</title>
<g id="a_edge11_Node000001_Node000012"><a xlink:title=" ">
<path fill="none" stroke="#63b8ff" d="M1079.98,-136.5C1062.84,-136.5 1045.15,-136.5 1029.12,-136.5"/>
<polygon fill="#63b8ff" stroke="#63b8ff" points="1079.98,-140 1089.98,-136.5 1079.98,-133 1079.98,-140"/>
</a>
</g>
</g>
<!-- Node15 -->
<g id="Node000015" class="node">
<title>Node15</title>
<g id="a_Node000015"><a xlink:href="classCapsuleCollider3D.html#ad88c1b1ce846c6e819ca7944b5128bc7" target="_top" xlink:title=" ">
<polygon fill="white" stroke="#666666" points="1026,-87.5 913,-87.5 913,-57.5 1026,-57.5 1026,-87.5"/>
<text text-anchor="start" x="921" y="-75.5" font-family="Helvetica,sans-Serif" font-size="10.00">CapsuleCollider3D::</text>
<text text-anchor="middle" x="969.5" y="-64.5" font-family="Helvetica,sans-Serif" font-size="10.00">CheckCollision</text>
</a>
</g>
</g>
<!-- Node1&#45;&gt;Node15 -->
<g id="edge14_Node000001_Node000015" class="edge">
<title>Node1&#45;&gt;Node15</title>
<g id="a_edge14_Node000001_Node000015"><a xlink:title=" ">
<path fill="none" stroke="#63b8ff" d="M1108.56,-118.28C1079.22,-108.55 1043.54,-96.72 1015.8,-87.52"/>
<polygon fill="#63b8ff" stroke="#63b8ff" points="1107.66,-121.67 1118.25,-121.49 1109.86,-115.03 1107.66,-121.67"/>
</a>
</g>
</g>
<!-- Node3 -->
<g id="Node000003" class="node">
<title>Node3</title>
<g id="a_Node000003"><a xlink:href="classCollision.html#a04062e8d30c3ab7ae63e01d78012988e" target="_top" xlink:title=" ">
<polygon fill="white" stroke="#666666" points="846,-275.5 685,-275.5 685,-245.5 846,-245.5 846,-275.5"/>
<text text-anchor="start" x="693" y="-263.5" font-family="Helvetica,sans-Serif" font-size="10.00">Collision::CalculateHorizontal</text>
<text text-anchor="middle" x="765.5" y="-252.5" font-family="Helvetica,sans-Serif" font-size="10.00">Penetration</text>
</a>
</g>
</g>
<!-- Node2&#45;&gt;Node3 -->
<g id="edge2_Node000002_Node000003" class="edge">
<title>Node2&#45;&gt;Node3</title>
<g id="a_edge2_Node000002_Node000003"><a xlink:title=" ">
<path fill="none" stroke="#63b8ff" d="M895.39,-229.87C873.86,-234.99 850.49,-240.54 829.64,-245.5"/>
<polygon fill="#63b8ff" stroke="#63b8ff" points="896.22,-233.27 905.14,-227.56 894.6,-226.46 896.22,-233.27"/>
</a>
</g>
</g>
<!-- Node11 -->
<g id="Node000011" class="node">
<title>Node11</title>
<g id="a_Node000011"><a xlink:href="classBoxCollider3D.html#ae0fce6576c6fec234e1be700b7be6305" target="_top" xlink:title=" ">
<polygon fill="white" stroke="#666666" points="834.5,-227.5 696.5,-227.5 696.5,-197.5 834.5,-197.5 834.5,-227.5"/>
<text text-anchor="start" x="704.5" y="-215.5" font-family="Helvetica,sans-Serif" font-size="10.00">BoxCollider3D::Calculate</text>
<text text-anchor="middle" x="765.5" y="-204.5" font-family="Helvetica,sans-Serif" font-size="10.00">HorizontalPenetration</text>
</a>
</g>
</g>
<!-- Node2&#45;&gt;Node11 -->
<g id="edge10_Node000002_Node000011" class="edge">
<title>Node2&#45;&gt;Node11</title>
<g id="a_edge10_Node000002_Node000011"><a xlink:title=" ">
<path fill="none" stroke="#63b8ff" d="M874.63,-212.5C861.16,-212.5 847.52,-212.5 834.68,-212.5"/>
<polygon fill="#63b8ff" stroke="#63b8ff" points="874.88,-216 884.88,-212.5 874.88,-209 874.88,-216"/>
</a>
</g>
</g>
<!-- Node4 -->
<g id="Node000004" class="node">
<title>Node4</title>
<g id="a_Node000004"><a xlink:href="classCollision.html#a6b1e1b61c9822815b55a4248f860b91d" target="_top" xlink:title=" ">
<polygon fill="white" stroke="#666666" points="646,-270 495,-270 495,-251 646,-251 646,-270"/>
<text text-anchor="middle" x="570.5" y="-258" font-family="Helvetica,sans-Serif" font-size="10.00">Collision::ResolveCollisions</text>
</a>
</g>
</g>
<!-- Node3&#45;&gt;Node4 -->
<g id="edge3_Node000003_Node000004" class="edge">
<title>Node3&#45;&gt;Node4</title>
<g id="a_edge3_Node000003_Node000004"><a xlink:title=" ">
<path fill="none" stroke="#63b8ff" d="M674.64,-260.5C665.15,-260.5 655.57,-260.5 646.28,-260.5"/>
<polygon fill="#63b8ff" stroke="#63b8ff" points="674.89,-264 684.89,-260.5 674.89,-257 674.89,-264"/>
</a>
</g>
</g>
<!-- Node5 -->
<g id="Node000005" class="node">
<title>Node5</title>
<g id="a_Node000005"><a xlink:href="classObjectManager.html#a179ee90458deb80834ccbd7432df76a9" target="_top" xlink:title=" ">
<polygon fill="white" stroke="#666666" points="459,-275.5 320,-275.5 320,-245.5 459,-245.5 459,-275.5"/>
<text text-anchor="start" x="328" y="-263.5" font-family="Helvetica,sans-Serif" font-size="10.00">ObjectManager::Collision</text>
<text text-anchor="middle" x="389.5" y="-252.5" font-family="Helvetica,sans-Serif" font-size="10.00">Update</text>
</a>
</g>
</g>
<!-- Node4&#45;&gt;Node5 -->
<g id="edge4_Node000004_Node000005" class="edge">
<title>Node4&#45;&gt;Node5</title>
<g id="a_edge4_Node000004_Node000005"><a xlink:title=" ">
<path fill="none" stroke="#63b8ff" d="M484.86,-260.5C476.29,-260.5 467.65,-260.5 459.27,-260.5"/>
<polygon fill="#63b8ff" stroke="#63b8ff" points="484.88,-264 494.88,-260.5 484.88,-257 484.88,-264"/>
</a>
</g>
</g>
<!-- Node6 -->
<g id="Node000006" class="node">
<title>Node6</title>
<g id="a_Node000006"><a xlink:href="classObjectManager.html#a3358b9b3a459e6594b97d098b33020e4" target="_top" xlink:title=" ">
<polygon fill="white" stroke="#666666" points="284,-270 152,-270 152,-251 284,-251 284,-270"/>
<text text-anchor="middle" x="218" y="-258" font-family="Helvetica,sans-Serif" font-size="10.00">ObjectManager::Update</text>
</a>
</g>
</g>
<!-- Node5&#45;&gt;Node6 -->
<g id="edge5_Node000005_Node000006" class="edge">
<title>Node5&#45;&gt;Node6</title>
<g id="a_edge5_Node000005_Node000006"><a xlink:title=" ">
<path fill="none" stroke="#63b8ff" d="M309.3,-260.5C300.85,-260.5 292.31,-260.5 284.05,-260.5"/>
<polygon fill="#63b8ff" stroke="#63b8ff" points="309.56,-264 319.56,-260.5 309.56,-257 309.56,-264"/>
</a>
</g>
</g>
<!-- Node7 -->
<g id="Node000007" class="node">
<title>Node7</title>
<g id="a_Node000007"><a xlink:href="classSceneClear.html#a0d10081bbfcf26346d75ef3ab68b121a" target="_top" xlink:title=" ">
<polygon fill="white" stroke="#666666" points="114.5,-326 1.5,-326 1.5,-307 114.5,-307 114.5,-326"/>
<text text-anchor="middle" x="58" y="-314" font-family="Helvetica,sans-Serif" font-size="10.00">SceneClear::Update</text>
</a>
</g>
</g>
<!-- Node6&#45;&gt;Node7 -->
<g id="edge6_Node000006_Node000007" class="edge">
<title>Node6&#45;&gt;Node7</title>
<g id="a_edge6_Node000006_Node000007"><a xlink:title=" ">
<path fill="none" stroke="#63b8ff" d="M183.25,-273.72C163.7,-281.24 138.57,-290.7 116,-298.5 107.66,-301.38 98.58,-304.33 90.16,-306.99"/>
<polygon fill="#63b8ff" stroke="#63b8ff" points="184.58,-276.96 192.64,-270.09 182.05,-270.43 184.58,-276.96"/>
</a>
</g>
</g>
<!-- Node8 -->
<g id="Node000008" class="node">
<title>Node8</title>
<g id="a_Node000008"><a xlink:href="classSceneFailed.html#a4dfe0b383097b359cf98a429e0e4870b" target="_top" xlink:title=" ">
<polygon fill="white" stroke="#666666" points="116,-289 0,-289 0,-270 116,-270 116,-289"/>
<text text-anchor="middle" x="58" y="-277" font-family="Helvetica,sans-Serif" font-size="10.00">SceneFailed::Update</text>
</a>
</g>
</g>
<!-- Node6&#45;&gt;Node8 -->
<g id="edge7_Node000006_Node000008" class="edge">
<title>Node6&#45;&gt;Node8</title>
<g id="a_edge7_Node000006_Node000008"><a xlink:title=" ">
<path fill="none" stroke="#63b8ff" d="M141.85,-269.54C133.31,-270.56 124.71,-271.6 116.45,-272.59"/>
<polygon fill="#63b8ff" stroke="#63b8ff" points="142.31,-273.01 151.82,-268.34 141.48,-266.06 142.31,-273.01"/>
</a>
</g>
</g>
<!-- Node9 -->
<g id="Node000009" class="node">
<title>Node9</title>
<g id="a_Node000009"><a xlink:href="classCSceneTest.html#a3d9631a9c02890150df96cd20d6d3d8d" target="_top" xlink:title=" ">
<polygon fill="white" stroke="#666666" points="114.5,-252 1.5,-252 1.5,-233 114.5,-233 114.5,-252"/>
<text text-anchor="middle" x="58" y="-240" font-family="Helvetica,sans-Serif" font-size="10.00">CSceneTest::Update</text>
</a>
</g>
</g>
<!-- Node6&#45;&gt;Node9 -->
<g id="edge8_Node000006_Node000009" class="edge">
<title>Node6&#45;&gt;Node9</title>
<g id="a_edge8_Node000006_Node000009"><a xlink:title=" ">
<path fill="none" stroke="#63b8ff" d="M141.7,-251.92C132.7,-250.9 123.62,-249.86 114.96,-248.87"/>
<polygon fill="#63b8ff" stroke="#63b8ff" points="141.49,-255.42 151.82,-253.07 142.28,-248.47 141.49,-255.42"/>
</a>
</g>
</g>
<!-- Node10 -->
<g id="Node000010" class="node">
<title>Node10</title>
<g id="a_Node000010"><a xlink:href="classSceneTitle.html#a28eb942a6d221a6dbaab9c509623b50f" target="_top" xlink:title=" ">
<polygon fill="white" stroke="#666666" points="112.5,-215 3.5,-215 3.5,-196 112.5,-196 112.5,-215"/>
<text text-anchor="middle" x="58" y="-203" font-family="Helvetica,sans-Serif" font-size="10.00">SceneTitle::Update</text>
</a>
</g>
</g>
<!-- Node6&#45;&gt;Node10 -->
<g id="edge9_Node000006_Node000010" class="edge">
<title>Node6&#45;&gt;Node10</title>
<g id="a_edge9_Node000006_Node000010"><a xlink:title=" ">
<path fill="none" stroke="#63b8ff" d="M180.89,-247.43C161.66,-240.51 137.58,-231.94 116,-224.5 106.93,-221.37 97.01,-218.04 88.04,-215.05"/>
<polygon fill="#63b8ff" stroke="#63b8ff" points="179.88,-250.78 190.47,-250.88 182.25,-244.19 179.88,-250.78"/>
</a>
</g>
</g>
<!-- Node13 -->
<g id="Node000013" class="node">
<title>Node13</title>
<g id="a_Node000013"><a xlink:href="classCollision.html#a8532e5aebca20b1be3d5be5822322264" target="_top" xlink:title=" ">
<polygon fill="white" stroke="#666666" points="849,-179 682,-179 682,-160 849,-160 849,-179"/>
<text text-anchor="middle" x="765.5" y="-167" font-family="Helvetica,sans-Serif" font-size="10.00">Collision::CalculatePenetration</text>
</a>
</g>
</g>
<!-- Node12&#45;&gt;Node13 -->
<g id="edge12_Node000012_Node000013" class="edge">
<title>Node12&#45;&gt;Node13</title>
<g id="a_edge12_Node000012_Node000013"><a xlink:title=" ">
<path fill="none" stroke="#63b8ff" d="M899.92,-147.7C875.57,-151.68 848.42,-156.12 825,-159.94"/>
<polygon fill="#63b8ff" stroke="#63b8ff" points="900.5,-151.16 909.8,-146.09 899.37,-144.25 900.5,-151.16"/>
</a>
</g>
</g>
<!-- Node14 -->
<g id="Node000014" class="node">
<title>Node14</title>
<g id="a_Node000014"><a xlink:href="classBoxCollider3D.html#a7a7dcd6e89d963818f6d81205fd790dc" target="_top" xlink:title=" ">
<polygon fill="white" stroke="#666666" points="834.5,-141.5 696.5,-141.5 696.5,-111.5 834.5,-111.5 834.5,-141.5"/>
<text text-anchor="start" x="704.5" y="-129.5" font-family="Helvetica,sans-Serif" font-size="10.00">BoxCollider3D::Calculate</text>
<text text-anchor="middle" x="765.5" y="-118.5" font-family="Helvetica,sans-Serif" font-size="10.00">Penetration</text>
</a>
</g>
</g>
<!-- Node12&#45;&gt;Node14 -->
<g id="edge13_Node000012_Node000014" class="edge">
<title>Node12&#45;&gt;Node14</title>
<g id="a_edge13_Node000012_Node000014"><a xlink:title=" ">
<path fill="none" stroke="#63b8ff" d="M899.67,-133.09C878.66,-132.05 855.57,-130.91 834.61,-129.87"/>
<polygon fill="#63b8ff" stroke="#63b8ff" points="899.64,-136.6 909.8,-133.59 899.99,-129.6 899.64,-136.6"/>
</a>
</g>
</g>
<!-- Node16 -->
<g id="Node000016" class="node">
<title>Node16</title>
<g id="a_Node000016"><a xlink:href="classCollision.html#a9fa0c5f36d568c834cac8a6c010b30da" target="_top" xlink:title=" ">
<polygon fill="white" stroke="#666666" points="834,-93 697,-93 697,-74 834,-74 834,-93"/>
<text text-anchor="middle" x="765.5" y="-81" font-family="Helvetica,sans-Serif" font-size="10.00">Collision::CheckCollision</text>
</a>
</g>
</g>
<!-- Node15&#45;&gt;Node16 -->
<g id="edge15_Node000015_Node000016" class="edge">
<title>Node15&#45;&gt;Node16</title>
<g id="a_edge15_Node000015_Node000016"><a xlink:title=" ">
<path fill="none" stroke="#63b8ff" d="M902.58,-76.09C880.69,-77.28 856.3,-78.61 834.27,-79.81"/>
<polygon fill="#63b8ff" stroke="#63b8ff" points="902.97,-79.57 912.77,-75.53 902.59,-72.58 902.97,-79.57"/>
</a>
</g>
</g>
<!-- Node17 -->
<g id="Node000017" class="node">
<title>Node17</title>
<g id="a_Node000017"><a xlink:href="classCollision.html#a07ebe483f70cdc0d32798347fd92ec30" target="_top" xlink:title=" ">
<polygon fill="white" stroke="#666666" points="834,-56 697,-56 697,-37 834,-37 834,-56"/>
<text text-anchor="middle" x="765.5" y="-44" font-family="Helvetica,sans-Serif" font-size="10.00">Collision::CheckCollision</text>
</a>
</g>
</g>
<!-- Node15&#45;&gt;Node17 -->
<g id="edge16_Node000015_Node000017" class="edge">
<title>Node15&#45;&gt;Node17</title>
<g id="a_edge16_Node000015_Node000017"><a xlink:title=" ">
<path fill="none" stroke="#63b8ff" d="M902.58,-64.01C880.69,-61.2 856.3,-58.06 834.27,-55.22"/>
<polygon fill="#63b8ff" stroke="#63b8ff" points="902.4,-67.52 912.77,-65.33 903.3,-60.58 902.4,-67.52"/>
</a>
</g>
</g>
<!-- Node18 -->
<g id="Node000018" class="node">
<title>Node18</title>
<g id="a_Node000018"><a xlink:href="classBoxCollider3D.html#a866ea16d9974c73e9b7600732e81fc46" target="_top" xlink:title=" ">
<polygon fill="white" stroke="#666666" points="847.5,-19 683.5,-19 683.5,0 847.5,0 847.5,-19"/>
<text text-anchor="middle" x="765.5" y="-7" font-family="Helvetica,sans-Serif" font-size="10.00">BoxCollider3D::CheckCollision</text>
</a>
</g>
</g>
<!-- Node15&#45;&gt;Node18 -->
<g id="edge17_Node000015_Node000018" class="edge">
<title>Node15&#45;&gt;Node18</title>
<g id="a_edge17_Node000015_Node000018"><a xlink:title=" ">
<path fill="none" stroke="#63b8ff" d="M923.16,-53.65C901.05,-44.91 873.91,-34.86 849,-27.5 838.46,-24.38 827.01,-21.55 816.09,-19.1"/>
<polygon fill="#63b8ff" stroke="#63b8ff" points="922.03,-56.97 932.62,-57.43 924.63,-50.47 922.03,-56.97"/>
</a>
</g>
</g>
</g>
</svg>
