<?xml version="1.0" encoding="UTF-8" standalone="no"?>
<!DOCTYPE svg PUBLIC "-//W3C//DTD SVG 1.1//EN"
 "http://www.w3.org/Graphics/SVG/1.1/DTD/svg11.dtd">
<!-- Generated by graphviz version 2.43.0 (0)
 -->
<!-- Title: Field::CalculateProceduralHeight Pages: 1 -->
<svg width="549pt" height="38pt"
 viewBox="0.00 0.00 549.00 38.00" xmlns="http://www.w3.org/2000/svg" xmlns:xlink="http://www.w3.org/1999/xlink">
<g id="graph0" class="graph" transform="scale(1 1) rotate(0) translate(4 34)">
<title>Field::CalculateProceduralHeight</title>
<!-- Node1 -->
<g id="Node000001" class="node">
<title>Node1</title>
<g id="a_Node000001"><a xlink:title=" ">
<polygon fill="#999999" stroke="#666666" points="541,-30 398,-30 398,0 541,0 541,-30"/>
<text text-anchor="start" x="406" y="-18" font-family="Helvetica,sans-Serif" font-size="10.00">Field::CalculateProcedural</text>
<text text-anchor="middle" x="469.5" y="-7" font-family="Helvetica,sans-Serif" font-size="10.00">Height</text>
</a>
</g>
</g>
<!-- Node2 -->
<g id="Node000002" class="node">
<title>Node2</title>
<g id="a_Node000002"><a xlink:href="classField.html#a6884427fdcff74356d65e695cb3bcbe7" target="_top" xlink:title=" ">
<polygon fill="white" stroke="#666666" points="362,-24.5 212,-24.5 212,-5.5 362,-5.5 362,-24.5"/>
<text text-anchor="middle" x="287" y="-12.5" font-family="Helvetica,sans-Serif" font-size="10.00">Field::GenerateTerrainMesh</text>
</a>
</g>
</g>
<!-- Node1&#45;&gt;Node2 -->
<g id="edge1_Node000001_Node000002" class="edge">
<title>Node1&#45;&gt;Node2</title>
<g id="a_edge1_Node000001_Node000002"><a xlink:title=" ">
<path fill="none" stroke="#63b8ff" d="M387.92,-15C379.32,-15 370.6,-15 362.09,-15"/>
<polygon fill="#63b8ff" stroke="#63b8ff" points="387.94,-18.5 397.94,-15 387.94,-11.5 387.94,-18.5"/>
</a>
</g>
</g>
<!-- Node3 -->
<g id="Node000003" class="node">
<title>Node3</title>
<g id="a_Node000003"><a xlink:href="classField.html#a8c8fb37e4237dd83a9b5b29c290a0d7f" target="_top" xlink:title=" ">
<polygon fill="white" stroke="#666666" points="176,-24.5 98,-24.5 98,-5.5 176,-5.5 176,-24.5"/>
<text text-anchor="middle" x="137" y="-12.5" font-family="Helvetica,sans-Serif" font-size="10.00">Field::Awake</text>
</a>
</g>
</g>
<!-- Node2&#45;&gt;Node3 -->
<g id="edge2_Node000002_Node000003" class="edge">
<title>Node2&#45;&gt;Node3</title>
<g id="a_edge2_Node000002_Node000003"><a xlink:title=" ">
<path fill="none" stroke="#63b8ff" d="M201.83,-15C192.88,-15 184.13,-15 176.11,-15"/>
<polygon fill="#63b8ff" stroke="#63b8ff" points="202,-18.5 212,-15 202,-11.5 202,-18.5"/>
</a>
</g>
</g>
<!-- Node4 -->
<g id="Node000004" class="node">
<title>Node4</title>
<g id="a_Node000004"><a xlink:href="classField.html#a28ecdf475975d369388ff847fed3c5dd" target="_top" xlink:title=" ">
<polygon fill="white" stroke="#666666" points="62,-24.5 0,-24.5 0,-5.5 62,-5.5 62,-24.5"/>
<text text-anchor="middle" x="31" y="-12.5" font-family="Helvetica,sans-Serif" font-size="10.00">Field::Init</text>
</a>
</g>
</g>
<!-- Node3&#45;&gt;Node4 -->
<g id="edge3_Node000003_Node000004" class="edge">
<title>Node3&#45;&gt;Node4</title>
<g id="a_edge3_Node000003_Node000004"><a xlink:title=" ">
<path fill="none" stroke="#63b8ff" d="M87.8,-15C79.13,-15 70.31,-15 62.32,-15"/>
<polygon fill="#63b8ff" stroke="#63b8ff" points="87.86,-18.5 97.86,-15 87.86,-11.5 87.86,-18.5"/>
</a>
</g>
</g>
</g>
</svg>
