<?xml version="1.0" encoding="UTF-8" standalone="no"?>
<!DOCTYPE svg PUBLIC "-//W3C//DTD SVG 1.1//EN"
 "http://www.w3.org/Graphics/SVG/1.1/DTD/svg11.dtd">
<!-- Generated by graphviz version 2.43.0 (0)
 -->
<!-- Title: DX12Manager::GetSRVHeap Pages: 1 -->
<svg width="865pt" height="313pt"
 viewBox="0.00 0.00 865.00 313.00" xmlns="http://www.w3.org/2000/svg" xmlns:xlink="http://www.w3.org/1999/xlink">
<g id="graph0" class="graph" transform="scale(1 1) rotate(0) translate(4 309)">
<title>DX12Manager::GetSRVHeap</title>
<!-- Node1 -->
<g id="Node000001" class="node">
<title>Node1</title>
<g id="a_Node000001"><a xlink:title=" ">
<polygon fill="#999999" stroke="#666666" points="857,-93 703,-93 703,-74 857,-74 857,-93"/>
<text text-anchor="middle" x="780" y="-81" font-family="Helvetica,sans-Serif" font-size="10.00">DX12Manager::GetSRVHeap</text>
</a>
</g>
</g>
<!-- Node2 -->
<g id="Node000002" class="node">
<title>Node2</title>
<g id="a_Node000002"><a xlink:href="classCModel.html#a1a03aa5ad4a1bc91cf85c2820262e97e" target="_top" xlink:title=" ">
<polygon fill="white" stroke="#666666" points="658,-176 512,-176 512,-157 658,-157 658,-176"/>
<text text-anchor="middle" x="585" y="-164" font-family="Helvetica,sans-Serif" font-size="10.00">CModel::CreateBoneBuffer</text>
</a>
</g>
</g>
<!-- Node1&#45;&gt;Node2 -->
<g id="edge1_Node000001_Node000002" class="edge">
<title>Node1&#45;&gt;Node2</title>
<g id="a_edge1_Node000001_Node000002"><a xlink:title=" ">
<path fill="none" stroke="#63b8ff" d="M752.16,-97.85C729.74,-109.55 696.75,-126.11 667,-138.5 650.66,-145.31 632,-151.84 616.72,-156.87"/>
<polygon fill="#63b8ff" stroke="#63b8ff" points="753.86,-100.91 761.08,-93.16 750.6,-94.71 753.86,-100.91"/>
</a>
</g>
</g>
<!-- Node12 -->
<g id="Node000012" class="node">
<title>Node12</title>
<g id="a_Node000012"><a xlink:href="classCModel.html#a0771b89a35cb5a80d79b628c1541f94e" target="_top" xlink:title=" ">
<polygon fill="white" stroke="#666666" points="627.5,-130 542.5,-130 542.5,-111 627.5,-111 627.5,-130"/>
<text text-anchor="middle" x="585" y="-118" font-family="Helvetica,sans-Serif" font-size="10.00">CModel::Draw</text>
</a>
</g>
</g>
<!-- Node1&#45;&gt;Node12 -->
<g id="edge11_Node000001_Node000012" class="edge">
<title>Node1&#45;&gt;Node12</title>
<g id="a_edge11_Node000001_Node000012"><a xlink:title=" ">
<path fill="none" stroke="#63b8ff" d="M719.45,-94.92C689.73,-100.61 654.5,-107.37 627.7,-112.51"/>
<polygon fill="#63b8ff" stroke="#63b8ff" points="720.14,-98.35 729.3,-93.03 718.82,-91.47 720.14,-98.35"/>
</a>
</g>
</g>
<!-- Node14 -->
<g id="Node000014" class="node">
<title>Node14</title>
<g id="a_Node000014"><a xlink:href="classCSpriteRenderer.html#a3d5be9cbf966750032c2f4b19eabd793" target="_top" xlink:title=" ">
<polygon fill="white" stroke="#666666" points="649,-93 521,-93 521,-74 649,-74 649,-93"/>
<text text-anchor="middle" x="585" y="-81" font-family="Helvetica,sans-Serif" font-size="10.00">CSpriteRenderer::Draw</text>
</a>
</g>
</g>
<!-- Node1&#45;&gt;Node14 -->
<g id="edge13_Node000001_Node000014" class="edge">
<title>Node1&#45;&gt;Node14</title>
<g id="a_edge13_Node000001_Node000014"><a xlink:title=" ">
<path fill="none" stroke="#63b8ff" d="M692.88,-83.5C678.18,-83.5 663.14,-83.5 649.17,-83.5"/>
<polygon fill="#63b8ff" stroke="#63b8ff" points="693,-87 703,-83.5 693,-80 693,-87"/>
</a>
</g>
</g>
<!-- Node15 -->
<g id="Node000015" class="node">
<title>Node15</title>
<g id="a_Node000015"><a xlink:href="classPostProcessPass.html#ad5cb96984d04f6e2c38efa93b9db52d7" target="_top" xlink:title=" ">
<polygon fill="white" stroke="#666666" points="655.5,-56 514.5,-56 514.5,-37 655.5,-37 655.5,-56"/>
<text text-anchor="middle" x="585" y="-44" font-family="Helvetica,sans-Serif" font-size="10.00">PostProcessPass::Execute</text>
</a>
</g>
</g>
<!-- Node1&#45;&gt;Node15 -->
<g id="edge14_Node000001_Node000015" class="edge">
<title>Node1&#45;&gt;Node15</title>
<g id="a_edge14_Node000001_Node000015"><a xlink:title=" ">
<path fill="none" stroke="#63b8ff" d="M719.28,-72.05C692.53,-66.92 661.35,-60.94 635.87,-56.06"/>
<polygon fill="#63b8ff" stroke="#63b8ff" points="718.82,-75.53 729.3,-73.97 720.14,-68.65 718.82,-75.53"/>
</a>
</g>
</g>
<!-- Node16 -->
<g id="Node000016" class="node">
<title>Node16</title>
<g id="a_Node000016"><a xlink:href="classRenderTexture.html#a381aa65068dae17a5917d8e6bad92051" target="_top" xlink:title=" ">
<polygon fill="white" stroke="#666666" points="667,-19 503,-19 503,0 667,0 667,-19"/>
<text text-anchor="middle" x="585" y="-7" font-family="Helvetica,sans-Serif" font-size="10.00">RenderTexture::RenderTexture</text>
</a>
</g>
</g>
<!-- Node1&#45;&gt;Node16 -->
<g id="edge15_Node000001_Node000016" class="edge">
<title>Node1&#45;&gt;Node16</title>
<g id="a_edge15_Node000001_Node000016"><a xlink:title=" ">
<path fill="none" stroke="#63b8ff" d="M754.09,-68.82C731.9,-56.28 698.19,-38.57 667,-27.5 657.77,-24.22 647.73,-21.42 637.96,-19.06"/>
<polygon fill="#63b8ff" stroke="#63b8ff" points="752.44,-71.91 762.86,-73.84 755.92,-65.83 752.44,-71.91"/>
</a>
</g>
</g>
<!-- Node3 -->
<g id="Node000003" class="node">
<title>Node3</title>
<g id="a_Node000003"><a xlink:href="classCModel.html#a33c901c5e51e4e912100130dc5ea77dc" target="_top" xlink:title=" ">
<polygon fill="white" stroke="#666666" points="441,-231 332,-231 332,-212 441,-212 441,-231"/>
<text text-anchor="middle" x="386.5" y="-219" font-family="Helvetica,sans-Serif" font-size="10.00">CModel::CopyFrom</text>
</a>
</g>
</g>
<!-- Node2&#45;&gt;Node3 -->
<g id="edge2_Node000002_Node000003" class="edge">
<title>Node2&#45;&gt;Node3</title>
<g id="a_edge2_Node000002_Node000003"><a xlink:title=" ">
<path fill="none" stroke="#63b8ff" d="M546.19,-179.34C523.39,-186.86 493.69,-196.27 467,-203.5 455.94,-206.5 443.91,-209.4 432.65,-211.97"/>
<polygon fill="#63b8ff" stroke="#63b8ff" points="547.44,-182.61 555.83,-176.14 545.23,-175.97 547.44,-182.61"/>
</a>
</g>
</g>
<!-- Node10 -->
<g id="Node000010" class="node">
<title>Node10</title>
<g id="a_Node000010"><a xlink:href="classCModel.html#a4a012839b9a3ce5420115a434c748875" target="_top" xlink:title=" ">
<polygon fill="white" stroke="#666666" points="467,-194 306,-194 306,-175 467,-175 467,-194"/>
<text text-anchor="middle" x="386.5" y="-182" font-family="Helvetica,sans-Serif" font-size="10.00">CModel::CreateTmpBoneData</text>
</a>
</g>
</g>
<!-- Node2&#45;&gt;Node10 -->
<g id="edge9_Node000002_Node000010" class="edge">
<title>Node2&#45;&gt;Node10</title>
<g id="a_edge9_Node000002_Node000010"><a xlink:title=" ">
<path fill="none" stroke="#63b8ff" d="M501.93,-174.02C490.43,-175.07 478.63,-176.15 467.17,-177.2"/>
<polygon fill="#63b8ff" stroke="#63b8ff" points="502.31,-177.5 511.95,-173.1 501.67,-170.53 502.31,-177.5"/>
</a>
</g>
</g>
<!-- Node11 -->
<g id="Node000011" class="node">
<title>Node11</title>
<g id="a_Node000011"><a xlink:href="classCModel.html#a7d511eaa3441724d866e2f41af8a03ce" target="_top" xlink:title=" ">
<polygon fill="white" stroke="#666666" points="443,-157 330,-157 330,-138 443,-138 443,-157"/>
<text text-anchor="middle" x="386.5" y="-145" font-family="Helvetica,sans-Serif" font-size="10.00">CModel::ModelLoad</text>
</a>
</g>
</g>
<!-- Node2&#45;&gt;Node11 -->
<g id="edge10_Node000002_Node000011" class="edge">
<title>Node2&#45;&gt;Node11</title>
<g id="a_edge10_Node000002_Node000011"><a xlink:title=" ">
<path fill="none" stroke="#63b8ff" d="M501.73,-158.55C482.02,-156.64 461.42,-154.65 443.23,-152.89"/>
<polygon fill="#63b8ff" stroke="#63b8ff" points="501.66,-162.05 511.95,-159.53 502.33,-155.09 501.66,-162.05"/>
</a>
</g>
</g>
<!-- Node4 -->
<g id="Node000004" class="node">
<title>Node4</title>
<g id="a_Node000004"><a xlink:href="classBillBoard.html#a56e7037cd161f03d6fa9196300e3273e" target="_top" xlink:title=" ">
<polygon fill="white" stroke="#666666" points="263.5,-305 152.5,-305 152.5,-286 263.5,-286 263.5,-305"/>
<text text-anchor="middle" x="208" y="-293" font-family="Helvetica,sans-Serif" font-size="10.00">BillBoard::BillBoard</text>
</a>
</g>
</g>
<!-- Node3&#45;&gt;Node4 -->
<g id="edge3_Node000003_Node000004" class="edge">
<title>Node3&#45;&gt;Node4</title>
<g id="a_edge3_Node000003_Node000004"><a xlink:title=" ">
<path fill="none" stroke="#63b8ff" d="M359.06,-235.86C336.01,-248.02 301.42,-265.34 270,-277.5 262.07,-280.57 253.39,-283.42 245.13,-285.91"/>
<polygon fill="#63b8ff" stroke="#63b8ff" points="360.72,-238.95 367.9,-231.16 357.43,-232.77 360.72,-238.95"/>
</a>
</g>
</g>
<!-- Node5 -->
<g id="Node000005" class="node">
<title>Node5</title>
<g id="a_Node000005"><a xlink:href="classEnemy.html#a6a7692f80cf59f63c5fbf9fdd5c0df62" target="_top" xlink:title=" ">
<polygon fill="white" stroke="#666666" points="252.5,-268 163.5,-268 163.5,-249 252.5,-249 252.5,-268"/>
<text text-anchor="middle" x="208" y="-256" font-family="Helvetica,sans-Serif" font-size="10.00">Enemy::Enemy</text>
</a>
</g>
</g>
<!-- Node3&#45;&gt;Node5 -->
<g id="edge4_Node000003_Node000005" class="edge">
<title>Node3&#45;&gt;Node5</title>
<g id="a_edge4_Node000003_Node000005"><a xlink:title=" ">
<path fill="none" stroke="#63b8ff" d="M330.01,-233.13C305.09,-238.36 276.12,-244.43 252.78,-249.32"/>
<polygon fill="#63b8ff" stroke="#63b8ff" points="330.98,-236.51 340.05,-231.03 329.54,-229.65 330.98,-236.51"/>
</a>
</g>
</g>
<!-- Node6 -->
<g id="Node000006" class="node">
<title>Node6</title>
<g id="a_Node000006"><a xlink:href="classPlayer.html#a474e6c60a290fb7fa0ff2c1f407e4b49" target="_top" xlink:title=" ">
<polygon fill="white" stroke="#666666" points="270,-231 146,-231 146,-212 270,-212 270,-231"/>
<text text-anchor="middle" x="208" y="-219" font-family="Helvetica,sans-Serif" font-size="10.00">Player::PerformAttack</text>
</a>
</g>
</g>
<!-- Node3&#45;&gt;Node6 -->
<g id="edge5_Node000003_Node000006" class="edge">
<title>Node3&#45;&gt;Node6</title>
<g id="a_edge5_Node000003_Node000006"><a xlink:title=" ">
<path fill="none" stroke="#63b8ff" d="M321.39,-221.5C304.73,-221.5 286.82,-221.5 270.3,-221.5"/>
<polygon fill="#63b8ff" stroke="#63b8ff" points="321.59,-225 331.59,-221.5 321.59,-218 321.59,-225"/>
</a>
</g>
</g>
<!-- Node8 -->
<g id="Node000008" class="node">
<title>Node8</title>
<g id="a_Node000008"><a xlink:href="classPlayer.html#affec312e47ec0cc7ed11a18d6c733bdb" target="_top" xlink:title=" ">
<polygon fill="white" stroke="#666666" points="250,-194 166,-194 166,-175 250,-175 250,-194"/>
<text text-anchor="middle" x="208" y="-182" font-family="Helvetica,sans-Serif" font-size="10.00">Player::Player</text>
</a>
</g>
</g>
<!-- Node3&#45;&gt;Node8 -->
<g id="edge7_Node000003_Node000008" class="edge">
<title>Node3&#45;&gt;Node8</title>
<g id="a_edge7_Node000003_Node000008"><a xlink:title=" ">
<path fill="none" stroke="#63b8ff" d="M330,-209.86C304.12,-204.44 273.86,-198.1 250.08,-193.11"/>
<polygon fill="#63b8ff" stroke="#63b8ff" points="329.54,-213.35 340.05,-211.97 330.98,-206.49 329.54,-213.35"/>
</a>
</g>
</g>
<!-- Node9 -->
<g id="Node000009" class="node">
<title>Node9</title>
<g id="a_Node000009"><a xlink:href="classSkydome.html#acc27ee9c3e27bd03683bfd2286453f2e" target="_top" xlink:title=" ">
<polygon fill="white" stroke="#666666" points="264.5,-157 151.5,-157 151.5,-138 264.5,-138 264.5,-157"/>
<text text-anchor="middle" x="208" y="-145" font-family="Helvetica,sans-Serif" font-size="10.00">Skydome::Skydome</text>
</a>
</g>
</g>
<!-- Node3&#45;&gt;Node9 -->
<g id="edge8_Node000003_Node000009" class="edge">
<title>Node3&#45;&gt;Node9</title>
<g id="a_edge8_Node000003_Node000009"><a xlink:title=" ">
<path fill="none" stroke="#63b8ff" d="M322.13,-210.81C316.51,-208.78 311.04,-206.37 306,-203.5 285.78,-191.99 289.84,-177.65 270,-165.5 264.45,-162.1 258.21,-159.31 251.9,-157.03"/>
<polygon fill="#63b8ff" stroke="#63b8ff" points="321.11,-214.16 331.7,-213.87 323.25,-207.49 321.11,-214.16"/>
</a>
</g>
</g>
<!-- Node7 -->
<g id="Node000007" class="node">
<title>Node7</title>
<g id="a_Node000007"><a xlink:href="classPlayerAttackState.html#a285b6125d04c6b154aa404bfb99b1b52" target="_top" xlink:title=" ">
<polygon fill="white" stroke="#666666" points="110,-236.5 0,-236.5 0,-206.5 110,-206.5 110,-236.5"/>
<text text-anchor="start" x="8" y="-224.5" font-family="Helvetica,sans-Serif" font-size="10.00">PlayerAttackState::</text>
<text text-anchor="middle" x="55" y="-213.5" font-family="Helvetica,sans-Serif" font-size="10.00">OnUpdate</text>
</a>
</g>
</g>
<!-- Node6&#45;&gt;Node7 -->
<g id="edge6_Node000006_Node000007" class="edge">
<title>Node6&#45;&gt;Node7</title>
<g id="a_edge6_Node000006_Node000007"><a xlink:title=" ">
<path fill="none" stroke="#63b8ff" d="M135.58,-221.5C127,-221.5 118.36,-221.5 110.09,-221.5"/>
<polygon fill="#63b8ff" stroke="#63b8ff" points="135.58,-225 145.58,-221.5 135.58,-218 135.58,-225"/>
</a>
</g>
</g>
<!-- Node13 -->
<g id="Node000013" class="node">
<title>Node13</title>
<g id="a_Node000013"><a xlink:href="classC3D__Object.html#a7e0d8c6aa664256ebe1b15ebb6f78da0" target="_top" xlink:title=" ">
<polygon fill="white" stroke="#666666" points="439,-120 334,-120 334,-101 439,-101 439,-120"/>
<text text-anchor="middle" x="386.5" y="-108" font-family="Helvetica,sans-Serif" font-size="10.00">C3D_Object::Draw</text>
</a>
</g>
</g>
<!-- Node12&#45;&gt;Node13 -->
<g id="edge12_Node000012_Node000013" class="edge">
<title>Node12&#45;&gt;Node13</title>
<g id="a_edge12_Node000012_Node000013"><a xlink:title=" ">
<path fill="none" stroke="#63b8ff" d="M532.1,-117.86C503.42,-116.4 467.92,-114.59 439.26,-113.13"/>
<polygon fill="#63b8ff" stroke="#63b8ff" points="532.16,-121.37 542.33,-118.38 532.52,-114.38 532.16,-121.37"/>
</a>
</g>
</g>
</g>
</svg>
