<?xml version="1.0" encoding="UTF-8" standalone="no"?>
<!DOCTYPE svg PUBLIC "-//W3C//DTD SVG 1.1//EN"
 "http://www.w3.org/Graphics/SVG/1.1/DTD/svg11.dtd">
<!-- Generated by graphviz version 2.43.0 (0)
 -->
<!-- Title: Source/Engine/Component/FieldComponent.h Pages: 1 -->
<!--zoomable 181 -->

<svg id="main" version="1.1" xmlns="http://www.w3.org/2000/svg" xmlns:xlink="http://www.w3.org/1999/xlink" xml:space="preserve" onload="init(evt)">
<style type="text/css"><![CDATA[
.node, .edge {opacity: 0.7;}
.node.selected, .edge.selected {opacity: 1;}
.edge:hover path { stroke: red; }
.edge:hover polygon { stroke: red; fill: red; }
]]></style>

<defs>
  <circle id="rim" cx="0" cy="0" r="7"/>
  <circle id="rim2" cx="0" cy="0" r="3.5"/>
  <g id="zoomPlus">
    <use xlink:href="#rim" fill="#404040"><set attributeName="fill" to="#808080" begin="zoomplus.mouseover" end="zoomplus.mouseout"/></use>
    <path d="M-4,0h8M0,-4v8" fill="none" stroke="white" stroke-width="1.5" pointer-events="none"/>
  </g>
  <g id="zoomMin">
    <use xlink:href="#rim" fill="#404040"><set attributeName="fill" to="#808080" begin="zoomminus.mouseover" end="zoomminus.mouseout"/></use>
    <path d="M-4,0h8" fill="none" stroke="white" stroke-width="1.5" pointer-events="none"/>
  </g>
  <g id="arrowUp" transform="translate(30 24)">
    <use xlink:href="#rim"/>
    <path pointer-events="none" fill="none" stroke="white" stroke-width="1.5" d="M0,-3.0v7 M-2.5,-0.5L0,-3.0L2.5,-0.5"/>
  </g>
  <g id="arrowRight" transform="rotate(90) translate(36 -43)">
    <use xlink:href="#rim"/>
    <path pointer-events="none" fill="none" stroke="white" stroke-width="1.5" d="M0,-3.0v7 M-2.5,-0.5L0,-3.0L2.5,-0.5"/>
  </g>
  <g id="arrowDown" transform="rotate(180) translate(-30 -48)">
    <use xlink:href="#rim"/>
    <path pointer-events="none" fill="none" stroke="white" stroke-width="1.5" d="M0,-3.0v7 M-2.5,-0.5L0,-3.0L2.5,-0.5"/>
  </g>
  <g id="arrowLeft" transform="rotate(270) translate(-36 17)">
    <use xlink:href="#rim"/>
    <path pointer-events="none" fill="none" stroke="white" stroke-width="1.5" d="M0,-3.0v7 M-2.5,-0.5L0,-3.0L2.5,-0.5"/>
  </g>
  <g id="resetDef">
    <use xlink:href="#rim2" fill="#404040"><set attributeName="fill" to="#808080" begin="reset.mouseover" end="reset.mouseout"/></use>
  </g>
</defs>
<script type="application/ecmascript">
var viewWidth = 5088;
var viewHeight = 181;
var sectionId = 'dynsection-1';
</script>
<script type="application/ecmascript" xlink:href="svg.min.js"/>
<svg id="graph" class="graph">
<g id="viewport">
<title>Source/Engine/Component/FieldComponent.h</title>
<!-- Node1 -->
<g id="Node000001" class="node">
<title>Node1</title>
<g id="a_Node000001"><a xlink:title=" ">
<polygon fill="#999999" stroke="#666666" points="2490.5,-173 2345.5,-173 2345.5,-143 2490.5,-143 2490.5,-173"/>
<text text-anchor="start" x="2353.5" y="-161" font-family="Helvetica,sans-Serif" font-size="10.00">Source/Engine/Component</text>
<text text-anchor="middle" x="2418" y="-150" font-family="Helvetica,sans-Serif" font-size="10.00">/FieldComponent.h</text>
</a>
</g>
</g>
<!-- Node2 -->
<g id="Node000002" class="node">
<title>Node2</title>
<g id="a_Node000002"><a xlink:href="PrefabSerializer_8cpp.html" target="_top" xlink:title=" ">
<polygon fill="white" stroke="#666666" points="2197.5,-101.5 2022.5,-101.5 2022.5,-82.5 2197.5,-82.5 2197.5,-101.5"/>
<text text-anchor="middle" x="2110" y="-89.5" font-family="Helvetica,sans-Serif" font-size="10.00">Source/Core/PrefabSerializer.cpp</text>
</a>
</g>
</g>
<!-- Node1&#45;&gt;Node2 -->
<g id="edge1_Node000001_Node000002" class="edge">
<title>Node1&#45;&gt;Node2</title>
<g id="a_edge1_Node000001_Node000002"><a xlink:title=" ">
<path fill="none" stroke="#63b8ff" d="M2340.56,-140.91C2280.36,-128.4 2199.22,-111.54 2150.99,-101.52"/>
<polygon fill="#63b8ff" stroke="#63b8ff" points="2339.91,-144.35 2350.41,-142.95 2341.33,-137.49 2339.91,-144.35"/>
</a>
</g>
</g>
<!-- Node3 -->
<g id="Node000003" class="node">
<title>Node3</title>
<g id="a_Node000003"><a xlink:href="InspectorUI_8cpp.html" target="_top" xlink:title=" ">
<polygon fill="white" stroke="#666666" points="160,-30 0,-30 0,-11 160,-11 160,-30"/>
<text text-anchor="middle" x="80" y="-18" font-family="Helvetica,sans-Serif" font-size="10.00">Source/Editor/InspectorUI.cpp</text>
</a>
</g>
</g>
<!-- Node1&#45;&gt;Node3 -->
<g id="edge2_Node000001_Node000003" class="edge">
<title>Node1&#45;&gt;Node3</title>
<g id="a_edge2_Node000001_Node000003"><a xlink:title=" ">
<path fill="none" stroke="#63b8ff" d="M2335.47,-141.98C2304.34,-134.25 2269.38,-122.99 2240,-107 2222.3,-97.37 2224.79,-84.29 2206,-77 2100.49,-36.04 281.41,-54.18 169,-41 149.83,-38.75 128.72,-34.22 111.87,-30.09"/>
<polygon fill="#63b8ff" stroke="#63b8ff" points="2334.89,-145.44 2345.43,-144.36 2336.52,-138.63 2334.89,-145.44"/>
</a>
</g>
</g>
<!-- Node4 -->
<g id="Node000004" class="node">
<title>Node4</title>
<g id="a_Node000004"><a xlink:href="CharacterMovementComponent_8cpp.html" target="_top" xlink:title=" ">
<polygon fill="white" stroke="#666666" points="374,-35.5 178,-35.5 178,-5.5 374,-5.5 374,-35.5"/>
<text text-anchor="start" x="186" y="-23.5" font-family="Helvetica,sans-Serif" font-size="10.00">Source/Engine/Component</text>
<text text-anchor="middle" x="276" y="-12.5" font-family="Helvetica,sans-Serif" font-size="10.00">/CharacterMovementComponent.cpp</text>
</a>
</g>
</g>
<!-- Node1&#45;&gt;Node4 -->
<g id="edge3_Node000001_Node000004" class="edge">
<title>Node1&#45;&gt;Node4</title>
<g id="a_edge3_Node000001_Node000004"><a xlink:title=" ">
<path fill="none" stroke="#63b8ff" d="M2356.59,-139.86C2331.42,-131.63 2302.52,-120.57 2278,-107 2259.18,-96.58 2260.26,-84.25 2240,-77 2142.85,-42.22 485.67,-51.28 383,-41 370.22,-39.72 356.69,-37.74 343.69,-35.53"/>
<polygon fill="#63b8ff" stroke="#63b8ff" points="2355.8,-143.28 2366.39,-142.99 2357.93,-136.61 2355.8,-143.28"/>
</a>
</g>
</g>
<!-- Node5 -->
<g id="Node000005" class="node">
<title>Node5</title>
<g id="a_Node000005"><a xlink:href="ComponentFactory_8cpp.html" target="_top" xlink:title=" ">
<polygon fill="white" stroke="#666666" points="2745.5,-107 2600.5,-107 2600.5,-77 2745.5,-77 2745.5,-107"/>
<text text-anchor="start" x="2608.5" y="-95" font-family="Helvetica,sans-Serif" font-size="10.00">Source/Engine/Component</text>
<text text-anchor="middle" x="2673" y="-84" font-family="Helvetica,sans-Serif" font-size="10.00">/ComponentFactory.cpp</text>
</a>
</g>
</g>
<!-- Node1&#45;&gt;Node5 -->
<g id="edge4_Node000001_Node000005" class="edge">
<title>Node1&#45;&gt;Node5</title>
<g id="a_edge4_Node000001_Node000005"><a xlink:title=" ">
<path fill="none" stroke="#63b8ff" d="M2483.67,-140.52C2525.03,-130.14 2577.84,-116.88 2617.17,-107.01"/>
<polygon fill="#63b8ff" stroke="#63b8ff" points="2482.81,-137.13 2473.96,-142.95 2484.51,-143.92 2482.81,-137.13"/>
</a>
</g>
</g>
<!-- Node6 -->
<g id="Node000006" class="node">
<title>Node6</title>
<g id="a_Node000006"><a xlink:href="FieldComponent_8cpp.html" target="_top" xlink:title=" ">
<polygon fill="white" stroke="#666666" points="2908.5,-107 2763.5,-107 2763.5,-77 2908.5,-77 2908.5,-107"/>
<text text-anchor="start" x="2771.5" y="-95" font-family="Helvetica,sans-Serif" font-size="10.00">Source/Engine/Component</text>
<text text-anchor="middle" x="2836" y="-84" font-family="Helvetica,sans-Serif" font-size="10.00">/FieldComponent.cpp</text>
</a>
</g>
</g>
<!-- Node1&#45;&gt;Node6 -->
<g id="edge5_Node000001_Node000006" class="edge">
<title>Node1&#45;&gt;Node6</title>
<g id="a_edge5_Node000001_Node000006"><a xlink:title=" ">
<path fill="none" stroke="#63b8ff" d="M2500.98,-145.25C2569.24,-135.45 2668.48,-120.89 2755,-107 2757.68,-106.57 2760.4,-106.13 2763.16,-105.67"/>
<polygon fill="#63b8ff" stroke="#63b8ff" points="2500.12,-141.84 2490.72,-146.72 2501.11,-148.77 2500.12,-141.84"/>
</a>
</g>
</g>
<!-- Node7 -->
<g id="Node000007" class="node">
<title>Node7</title>
<g id="a_Node000007"><a xlink:href="GravityComponent_8cpp.html" target="_top" xlink:title=" ">
<polygon fill="white" stroke="#666666" points="537.5,-35.5 392.5,-35.5 392.5,-5.5 537.5,-5.5 537.5,-35.5"/>
<text text-anchor="start" x="400.5" y="-23.5" font-family="Helvetica,sans-Serif" font-size="10.00">Source/Engine/Component</text>
<text text-anchor="middle" x="465" y="-12.5" font-family="Helvetica,sans-Serif" font-size="10.00">/GravityComponent.cpp</text>
</a>
</g>
</g>
<!-- Node1&#45;&gt;Node7 -->
<g id="edge6_Node000001_Node000007" class="edge">
<title>Node1&#45;&gt;Node7</title>
<g id="a_edge6_Node000001_Node000007"><a xlink:title=" ">
<path fill="none" stroke="#63b8ff" d="M2379.1,-138.43C2361.11,-129.47 2339.65,-118.25 2321,-107 2301.04,-94.97 2300.16,-84.22 2278,-77 2094.98,-17.37 736.9,-65.67 546,-41 536.25,-39.74 525.96,-37.77 516.11,-35.56"/>
<polygon fill="#63b8ff" stroke="#63b8ff" points="2377.64,-141.62 2388.15,-142.9 2380.73,-135.34 2377.64,-141.62"/>
</a>
</g>
</g>
<!-- Node8 -->
<g id="Node000008" class="node">
<title>Node8</title>
<g id="a_Node000008"><a xlink:href="ObjectManager_8h.html" target="_top" xlink:title=" ">
<polygon fill="white" stroke="#666666" points="2505.5,-101.5 2330.5,-101.5 2330.5,-82.5 2505.5,-82.5 2505.5,-101.5"/>
<text text-anchor="middle" x="2418" y="-89.5" font-family="Helvetica,sans-Serif" font-size="10.00">Source/Objects/ObjectManager.h</text>
</a>
</g>
</g>
<!-- Node1&#45;&gt;Node8 -->
<g id="edge7_Node000001_Node000008" class="edge">
<title>Node1&#45;&gt;Node8</title>
<g id="a_edge7_Node000001_Node000008"><a xlink:title=" ">
<path fill="none" stroke="#63b8ff" d="M2418,-132.6C2418,-121.8 2418,-109.78 2418,-101.84"/>
<polygon fill="#63b8ff" stroke="#63b8ff" points="2414.5,-132.8 2418,-142.8 2421.5,-132.8 2414.5,-132.8"/>
</a>
</g>
</g>
<!-- Node29 -->
<g id="Node000029" class="node">
<title>Node29</title>
<g id="a_Node000029"><a xlink:href="ObjectManager__Getter__Setter_8cpp.html" target="_top" xlink:title=" ">
<polygon fill="white" stroke="#666666" points="4894.5,-35.5 4727.5,-35.5 4727.5,-5.5 4894.5,-5.5 4894.5,-35.5"/>
<text text-anchor="start" x="4735.5" y="-23.5" font-family="Helvetica,sans-Serif" font-size="10.00">Source/Objects/ObjectManager</text>
<text text-anchor="middle" x="4811" y="-12.5" font-family="Helvetica,sans-Serif" font-size="10.00">_Getter_Setter.cpp</text>
</a>
</g>
</g>
<!-- Node1&#45;&gt;Node29 -->
<g id="edge37_Node000001_Node000029" class="edge">
<title>Node1&#45;&gt;Node29</title>
<g id="a_edge37_Node000001_Node000029"><a xlink:title=" ">
<path fill="none" stroke="#63b8ff" d="M2456.03,-138.49C2473.9,-129.47 2495.33,-118.18 2514,-107 2534.31,-94.85 2535.44,-84.16 2558,-77 2672.44,-40.65 4599.69,-54.51 4719,-41 4730.03,-39.75 4741.69,-37.79 4752.87,-35.58"/>
<polygon fill="#63b8ff" stroke="#63b8ff" points="2454.43,-135.39 2447.05,-142.99 2457.56,-141.65 2454.43,-135.39"/>
</a>
</g>
</g>
<!-- Node30 -->
<g id="Node000030" class="node">
<title>Node30</title>
<g id="a_Node000030"><a xlink:href="ObjectManager__Instantiate_8cpp.html" target="_top" xlink:title=" ">
<polygon fill="white" stroke="#666666" points="5079.5,-35.5 4912.5,-35.5 4912.5,-5.5 5079.5,-5.5 5079.5,-35.5"/>
<text text-anchor="start" x="4920.5" y="-23.5" font-family="Helvetica,sans-Serif" font-size="10.00">Source/Objects/ObjectManager</text>
<text text-anchor="middle" x="4996" y="-12.5" font-family="Helvetica,sans-Serif" font-size="10.00">_Instantiate.cpp</text>
</a>
</g>
</g>
<!-- Node1&#45;&gt;Node30 -->
<g id="edge38_Node000001_Node000030" class="edge">
<title>Node1&#45;&gt;Node30</title>
<g id="a_edge38_Node000001_Node000030"><a xlink:title=" ">
<path fill="none" stroke="#63b8ff" d="M2473.3,-139.64C2497.48,-131.15 2525.79,-119.95 2550,-107 2570.23,-96.18 2570.21,-84.17 2592,-77 2714.02,-36.85 4776.35,-55.39 4904,-41 4915.03,-39.76 4926.7,-37.8 4937.87,-35.59"/>
<polygon fill="#63b8ff" stroke="#63b8ff" points="2471.88,-136.43 2463.56,-142.99 2474.16,-143.04 2471.88,-136.43"/>
</a>
</g>
</g>
<!-- Node8&#45;&gt;Node3 -->
<g id="edge14_Node000008_Node000003" class="edge">
<title>Node8&#45;&gt;Node3</title>
<g id="a_edge14_Node000008_Node000003"><a xlink:title=" ">
<path fill="none" stroke="#63b8ff" d="M2320.02,-82.21C2294.02,-80.18 2265.97,-78.25 2240,-77 1780.24,-54.94 626.17,-94.52 169,-41 149.83,-38.76 128.72,-34.22 111.87,-30.09"/>
<polygon fill="#63b8ff" stroke="#63b8ff" points="2320,-85.72 2330.25,-83.03 2320.56,-78.74 2320,-85.72"/>
</a>
</g>
</g>
<!-- Node8&#45;&gt;Node4 -->
<g id="edge17_Node000008_Node000004" class="edge">
<title>Node8&#45;&gt;Node4</title>
<g id="a_edge17_Node000008_Node000004"><a xlink:title=" ">
<path fill="none" stroke="#63b8ff" d="M2333.88,-81.48C2315.48,-79.7 2296.1,-78.08 2278,-77 1437.11,-27.05 1221.2,-124.79 383,-41 370.22,-39.72 356.69,-37.75 343.69,-35.54"/>
<polygon fill="#63b8ff" stroke="#63b8ff" points="2333.68,-84.97 2343.98,-82.47 2334.37,-78.01 2333.68,-84.97"/>
</a>
</g>
</g>
<!-- Node8&#45;&gt;Node7 -->
<g id="edge20_Node000008_Node000007" class="edge">
<title>Node8&#45;&gt;Node7</title>
<g id="a_edge20_Node000008_Node000007"><a xlink:title=" ">
<path fill="none" stroke="#63b8ff" d="M2354.59,-81.14C2341.84,-79.48 2328.51,-77.98 2316,-77 1923.79,-46.2 936.18,-91.33 546,-41 536.25,-39.74 525.96,-37.78 516.11,-35.57"/>
<polygon fill="#63b8ff" stroke="#63b8ff" points="2354.28,-84.63 2364.66,-82.49 2355.22,-77.69 2354.28,-84.63"/>
</a>
</g>
</g>
<!-- Node9 -->
<g id="Node000009" class="node">
<title>Node9</title>
<g id="a_Node000009"><a xlink:href="DX12Manager_8cpp.html" target="_top" xlink:title=" ">
<polygon fill="white" stroke="#666666" points="2232.5,-30 2065.5,-30 2065.5,-11 2232.5,-11 2232.5,-30"/>
<text text-anchor="middle" x="2149" y="-18" font-family="Helvetica,sans-Serif" font-size="10.00">Source/Core/DX12Manager.cpp</text>
</a>
</g>
</g>
<!-- Node8&#45;&gt;Node9 -->
<g id="edge8_Node000008_Node000009" class="edge">
<title>Node8&#45;&gt;Node9</title>
<g id="a_edge8_Node000008_Node000009"><a xlink:title=" ">
<path fill="none" stroke="#63b8ff" d="M2375.13,-79.92C2321.53,-66.08 2230.91,-42.66 2182.25,-30.09"/>
<polygon fill="#63b8ff" stroke="#63b8ff" points="2374.46,-83.37 2385.02,-82.48 2376.21,-76.59 2374.46,-83.37"/>
</a>
</g>
</g>
<!-- Node10 -->
<g id="Node000010" class="node">
<title>Node10</title>
<g id="a_Node000010"><a xlink:href="SceneManager_8cpp.html" target="_top" xlink:title=" ">
<polygon fill="white" stroke="#666666" points="2407.5,-35.5 2250.5,-35.5 2250.5,-5.5 2407.5,-5.5 2407.5,-35.5"/>
<text text-anchor="start" x="2258.5" y="-23.5" font-family="Helvetica,sans-Serif" font-size="10.00">Source/Core/Scenes</text>
<text text-anchor="middle" x="2329" y="-12.5" font-family="Helvetica,sans-Serif" font-size="10.00">/Manager/SceneManager.cpp</text>
</a>
</g>
</g>
<!-- Node8&#45;&gt;Node10 -->
<g id="edge9_Node000008_Node000010" class="edge">
<title>Node8&#45;&gt;Node10</title>
<g id="a_edge9_Node000008_Node000010"><a xlink:title=" ">
<path fill="none" stroke="#63b8ff" d="M2398.85,-76.04C2383.51,-64.07 2362.15,-47.39 2347.1,-35.64"/>
<polygon fill="#63b8ff" stroke="#63b8ff" points="2397.05,-79.08 2407.09,-82.48 2401.36,-73.56 2397.05,-79.08"/>
</a>
</g>
</g>
<!-- Node11 -->
<g id="Node000011" class="node">
<title>Node11</title>
<g id="a_Node000011"><a xlink:href="SceneSerializer_8cpp.html" target="_top" xlink:title=" ">
<polygon fill="white" stroke="#666666" points="2588.5,-35.5 2425.5,-35.5 2425.5,-5.5 2588.5,-5.5 2588.5,-35.5"/>
<text text-anchor="start" x="2433.5" y="-23.5" font-family="Helvetica,sans-Serif" font-size="10.00">Source/Core/Scenes</text>
<text text-anchor="middle" x="2507" y="-12.5" font-family="Helvetica,sans-Serif" font-size="10.00">/Serializer/SceneSerializer.cpp</text>
</a>
</g>
</g>
<!-- Node8&#45;&gt;Node11 -->
<g id="edge10_Node000008_Node000011" class="edge">
<title>Node8&#45;&gt;Node11</title>
<g id="a_edge10_Node000008_Node000011"><a xlink:title=" ">
<path fill="none" stroke="#63b8ff" d="M2437.15,-76.04C2452.49,-64.07 2473.85,-47.39 2488.9,-35.64"/>
<polygon fill="#63b8ff" stroke="#63b8ff" points="2434.64,-73.56 2428.91,-82.48 2438.95,-79.08 2434.64,-73.56"/>
</a>
</g>
</g>
<!-- Node12 -->
<g id="Node000012" class="node">
<title>Node12</title>
<g id="a_Node000012"><a xlink:href="ContentDrawerUI_8cpp.html" target="_top" xlink:title=" ">
<polygon fill="white" stroke="#666666" points="2765,-35.5 2607,-35.5 2607,-5.5 2765,-5.5 2765,-35.5"/>
<text text-anchor="start" x="2615" y="-23.5" font-family="Helvetica,sans-Serif" font-size="10.00">Source/Editor/ContentDrawer</text>
<text text-anchor="middle" x="2686" y="-12.5" font-family="Helvetica,sans-Serif" font-size="10.00">UI.cpp</text>
</a>
</g>
</g>
<!-- Node8&#45;&gt;Node12 -->
<g id="edge11_Node000008_Node000012" class="edge">
<title>Node8&#45;&gt;Node12</title>
<g id="a_edge11_Node000008_Node000012"><a xlink:title=" ">
<path fill="none" stroke="#63b8ff" d="M2460.61,-79.95C2507.06,-67.9 2581.48,-48.6 2631.99,-35.51"/>
<polygon fill="#63b8ff" stroke="#63b8ff" points="2459.66,-76.58 2450.86,-82.48 2461.42,-83.36 2459.66,-76.58"/>
</a>
</g>
</g>
<!-- Node13 -->
<g id="Node000013" class="node">
<title>Node13</title>
<g id="a_Node000013"><a xlink:href="EditorToolbarUI_8cpp.html" target="_top" xlink:title=" ">
<polygon fill="white" stroke="#666666" points="2931,-35.5 2783,-35.5 2783,-5.5 2931,-5.5 2931,-35.5"/>
<text text-anchor="start" x="2791" y="-23.5" font-family="Helvetica,sans-Serif" font-size="10.00">Source/Editor/EditorToolbar</text>
<text text-anchor="middle" x="2857" y="-12.5" font-family="Helvetica,sans-Serif" font-size="10.00">UI.cpp</text>
</a>
</g>
</g>
<!-- Node8&#45;&gt;Node13 -->
<g id="edge12_Node000008_Node000013" class="edge">
<title>Node8&#45;&gt;Node13</title>
<g id="a_edge12_Node000008_Node000013"><a xlink:title=" ">
<path fill="none" stroke="#63b8ff" d="M2489.74,-81.09C2589.68,-67.27 2760.19,-43.59 2774,-41 2782.58,-39.39 2791.62,-37.49 2800.44,-35.51"/>
<polygon fill="#63b8ff" stroke="#63b8ff" points="2489.13,-77.65 2479.7,-82.48 2490.09,-84.58 2489.13,-77.65"/>
</a>
</g>
</g>
<!-- Node14 -->
<g id="Node000014" class="node">
<title>Node14</title>
<g id="a_Node000014"><a xlink:href="HierarchyUI_8cpp.html" target="_top" xlink:title=" ">
<polygon fill="white" stroke="#666666" points="3111,-30 2949,-30 2949,-11 3111,-11 3111,-30"/>
<text text-anchor="middle" x="3030" y="-18" font-family="Helvetica,sans-Serif" font-size="10.00">Source/Editor/HierarchyUI.cpp</text>
</a>
</g>
</g>
<!-- Node8&#45;&gt;Node14 -->
<g id="edge13_Node000008_Node000014" class="edge">
<title>Node8&#45;&gt;Node14</title>
<g id="a_edge13_Node000008_Node000014"><a xlink:title=" ">
<path fill="none" stroke="#63b8ff" d="M2486.39,-81.13C2497.61,-79.65 2509.12,-78.21 2520,-77 2706.2,-56.26 2754.74,-68.89 2940,-41 2958.5,-38.22 2978.89,-33.9 2995.57,-30.04"/>
<polygon fill="#63b8ff" stroke="#63b8ff" points="2485.64,-77.69 2476.19,-82.49 2486.57,-84.63 2485.64,-77.69"/>
</a>
</g>
</g>
<!-- Node15 -->
<g id="Node000015" class="node">
<title>Node15</title>
<g id="a_Node000015"><a xlink:href="BillboardComponent_8cpp.html" target="_top" xlink:title=" ">
<polygon fill="white" stroke="#666666" points="3274.5,-35.5 3129.5,-35.5 3129.5,-5.5 3274.5,-5.5 3274.5,-35.5"/>
<text text-anchor="start" x="3137.5" y="-23.5" font-family="Helvetica,sans-Serif" font-size="10.00">Source/Engine/Component</text>
<text text-anchor="middle" x="3202" y="-12.5" font-family="Helvetica,sans-Serif" font-size="10.00">/BillboardComponent.cpp</text>
</a>
</g>
</g>
<!-- Node8&#45;&gt;Node15 -->
<g id="edge15_Node000008_Node000015" class="edge">
<title>Node8&#45;&gt;Node15</title>
<g id="a_edge15_Node000008_Node000015"><a xlink:title=" ">
<path fill="none" stroke="#63b8ff" d="M2484.53,-81.12C2496.33,-79.58 2508.51,-78.13 2520,-77 2785.86,-50.82 2855.72,-80.05 3120,-41 3129.41,-39.61 3139.33,-37.67 3148.89,-35.55"/>
<polygon fill="#63b8ff" stroke="#63b8ff" points="2483.74,-77.7 2474.29,-82.49 2484.67,-84.63 2483.74,-77.7"/>
</a>
</g>
</g>
<!-- Node16 -->
<g id="Node000016" class="node">
<title>Node16</title>
<g id="a_Node000016"><a xlink:href="CameraComponent_8cpp.html" target="_top" xlink:title=" ">
<polygon fill="white" stroke="#666666" points="3437.5,-35.5 3292.5,-35.5 3292.5,-5.5 3437.5,-5.5 3437.5,-35.5"/>
<text text-anchor="start" x="3300.5" y="-23.5" font-family="Helvetica,sans-Serif" font-size="10.00">Source/Engine/Component</text>
<text text-anchor="middle" x="3365" y="-12.5" font-family="Helvetica,sans-Serif" font-size="10.00">/CameraComponent.cpp</text>
</a>
</g>
</g>
<!-- Node8&#45;&gt;Node16 -->
<g id="edge16_Node000008_Node000016" class="edge">
<title>Node8&#45;&gt;Node16</title>
<g id="a_edge16_Node000008_Node000016"><a xlink:title=" ">
<path fill="none" stroke="#63b8ff" d="M2483.52,-81.13C2495.63,-79.55 2508.18,-78.09 2520,-77 2858.5,-45.86 2947.47,-89 3284,-41 3293.45,-39.65 3303.41,-37.7 3312.99,-35.55"/>
<polygon fill="#63b8ff" stroke="#63b8ff" points="2482.93,-77.67 2473.48,-82.47 2483.86,-84.61 2482.93,-77.67"/>
</a>
</g>
</g>
<!-- Node17 -->
<g id="Node000017" class="node">
<title>Node17</title>
<g id="a_Node000017"><a xlink:href="ComponentManager_8h.html" target="_top" xlink:title=" ">
<polygon fill="white" stroke="#666666" points="3600.5,-35.5 3455.5,-35.5 3455.5,-5.5 3600.5,-5.5 3600.5,-35.5"/>
<text text-anchor="start" x="3463.5" y="-23.5" font-family="Helvetica,sans-Serif" font-size="10.00">Source/Engine/Component</text>
<text text-anchor="middle" x="3528" y="-12.5" font-family="Helvetica,sans-Serif" font-size="10.00">/ComponentManager.h</text>
</a>
</g>
</g>
<!-- Node8&#45;&gt;Node17 -->
<g id="edge18_Node000008_Node000017" class="edge">
<title>Node8&#45;&gt;Node17</title>
<g id="a_edge18_Node000008_Node000017"><a xlink:title=" ">
<path fill="none" stroke="#63b8ff" d="M2482.87,-81.13C2495.18,-79.53 2507.97,-78.06 2520,-77 2930.73,-40.92 3038.58,-97.53 3447,-41 3456.6,-39.67 3466.72,-37.7 3476.44,-35.52"/>
<polygon fill="#63b8ff" stroke="#63b8ff" points="2482.12,-77.7 2472.68,-82.49 2483.05,-84.64 2482.12,-77.7"/>
</a>
</g>
</g>
<!-- Node18 -->
<g id="Node000018" class="node">
<title>Node18</title>
<g id="a_Node000018"><a xlink:href="EnemyCounterComponent_8cpp.html" target="_top" xlink:title=" ">
<polygon fill="white" stroke="#666666" points="3787,-35.5 3619,-35.5 3619,-5.5 3787,-5.5 3787,-35.5"/>
<text text-anchor="start" x="3627" y="-23.5" font-family="Helvetica,sans-Serif" font-size="10.00">Source/Engine/Component</text>
<text text-anchor="middle" x="3703" y="-12.5" font-family="Helvetica,sans-Serif" font-size="10.00">/EnemyCounterComponent.cpp</text>
</a>
</g>
</g>
<!-- Node8&#45;&gt;Node18 -->
<g id="edge19_Node000008_Node000018" class="edge">
<title>Node8&#45;&gt;Node18</title>
<g id="a_edge19_Node000008_Node000018"><a xlink:title=" ">
<path fill="none" stroke="#63b8ff" d="M2482.66,-81.1C2495.03,-79.5 2507.89,-78.03 2520,-77 3002.97,-35.99 3128.77,-98.95 3610,-41 3620.97,-39.68 3632.57,-37.71 3643.72,-35.53"/>
<polygon fill="#63b8ff" stroke="#63b8ff" points="2481.85,-77.68 2472.41,-82.47 2482.78,-84.61 2481.85,-77.68"/>
</a>
</g>
</g>
<!-- Node19 -->
<g id="Node000019" class="node">
<title>Node19</title>
<g id="a_Node000019"><a xlink:href="ParticleEmitterComponent_8cpp.html" target="_top" xlink:title=" ">
<polygon fill="white" stroke="#666666" points="3973,-35.5 3805,-35.5 3805,-5.5 3973,-5.5 3973,-35.5"/>
<text text-anchor="start" x="3813" y="-23.5" font-family="Helvetica,sans-Serif" font-size="10.00">Source/Engine/Component</text>
<text text-anchor="middle" x="3889" y="-12.5" font-family="Helvetica,sans-Serif" font-size="10.00">/ParticleEmitterComponent.cpp</text>
</a>
</g>
</g>
<!-- Node8&#45;&gt;Node19 -->
<g id="edge21_Node000008_Node000019" class="edge">
<title>Node8&#45;&gt;Node19</title>
<g id="a_edge21_Node000008_Node000019"><a xlink:title=" ">
<path fill="none" stroke="#63b8ff" d="M2481.85,-81.16C2494.47,-79.52 2507.63,-78.02 2520,-77 3085.42,-30.36 3232.57,-107.48 3796,-41 3806.98,-39.7 3818.58,-37.75 3829.73,-35.57"/>
<polygon fill="#63b8ff" stroke="#63b8ff" points="2481.32,-77.7 2471.87,-82.5 2482.25,-84.63 2481.32,-77.7"/>
</a>
</g>
</g>
<!-- Node20 -->
<g id="Node000020" class="node">
<title>Node20</title>
<g id="a_Node000020"><a xlink:href="BulletComponent_8cpp.html" target="_top" xlink:title=" ">
<polygon fill="white" stroke="#666666" points="4115.5,-41 3990.5,-41 3990.5,0 4115.5,0 4115.5,-41"/>
<text text-anchor="start" x="3998.5" y="-29" font-family="Helvetica,sans-Serif" font-size="10.00">Source/Game/Entities</text>
<text text-anchor="start" x="3998.5" y="-18" font-family="Helvetica,sans-Serif" font-size="10.00">/Bullet/PlayerBullet</text>
<text text-anchor="middle" x="4053" y="-7" font-family="Helvetica,sans-Serif" font-size="10.00">/BulletComponent.cpp</text>
</a>
</g>
</g>
<!-- Node8&#45;&gt;Node20 -->
<g id="edge22_Node000008_Node000020" class="edge">
<title>Node8&#45;&gt;Node20</title>
<g id="a_edge22_Node000008_Node000020"><a xlink:title=" ">
<path fill="none" stroke="#63b8ff" d="M2481.63,-81.15C2494.31,-79.5 2507.56,-78 2520,-77 2843.93,-50.86 3660.49,-88.39 3982,-41 3984.78,-40.59 3987.61,-40.11 3990.46,-39.56"/>
<polygon fill="#63b8ff" stroke="#63b8ff" points="2481.05,-77.7 2471.61,-82.5 2481.98,-84.63 2481.05,-77.7"/>
</a>
</g>
</g>
<!-- Node21 -->
<g id="Node000021" class="node">
<title>Node21</title>
<g id="a_Node000021"><a xlink:href="EnemyAIComponent_8cpp.html" target="_top" xlink:title=" ">
<polygon fill="white" stroke="#666666" points="4366,-35.5 4134,-35.5 4134,-5.5 4366,-5.5 4366,-35.5"/>
<text text-anchor="start" x="4142" y="-23.5" font-family="Helvetica,sans-Serif" font-size="10.00">Source/Game/Entities</text>
<text text-anchor="middle" x="4250" y="-12.5" font-family="Helvetica,sans-Serif" font-size="10.00">/Characters/Enemy/EnemyAIComponent.cpp</text>
</a>
</g>
</g>
<!-- Node8&#45;&gt;Node21 -->
<g id="edge23_Node000008_Node000021" class="edge">
<title>Node8&#45;&gt;Node21</title>
<g id="a_edge23_Node000008_Node000021"><a xlink:title=" ">
<path fill="none" stroke="#63b8ff" d="M2481.63,-81.13C2494.31,-79.48 2507.56,-77.99 2520,-77 3231.26,-20.4 3414.29,-104.13 4125,-41 4139.77,-39.69 4155.44,-37.71 4170.51,-35.51"/>
<polygon fill="#63b8ff" stroke="#63b8ff" points="2481.05,-77.67 2471.61,-82.47 2481.98,-84.61 2481.05,-77.67"/>
</a>
</g>
</g>
<!-- Node22 -->
<g id="Node000022" class="node">
<title>Node22</title>
<g id="a_Node000022"><a xlink:href="PlayerControllerComponent_8cpp.html" target="_top" xlink:title=" ">
<polygon fill="white" stroke="#666666" points="4572,-41 4384,-41 4384,0 4572,0 4572,-41"/>
<text text-anchor="start" x="4392" y="-29" font-family="Helvetica,sans-Serif" font-size="10.00">Source/Game/Entities</text>
<text text-anchor="start" x="4392" y="-18" font-family="Helvetica,sans-Serif" font-size="10.00">/Characters/Player/PlayerController</text>
<text text-anchor="middle" x="4478" y="-7" font-family="Helvetica,sans-Serif" font-size="10.00">Component.cpp</text>
</a>
</g>
</g>
<!-- Node8&#45;&gt;Node22 -->
<g id="edge24_Node000008_Node000022" class="edge">
<title>Node8&#45;&gt;Node22</title>
<g id="a_edge24_Node000008_Node000022"><a xlink:title=" ">
<path fill="none" stroke="#63b8ff" d="M2481.41,-81.13C2494.16,-79.47 2507.49,-77.98 2520,-77 3342.1,-12.83 3554.79,-125.99 4375,-41 4377.9,-40.7 4380.83,-40.36 4383.79,-39.99"/>
<polygon fill="#63b8ff" stroke="#63b8ff" points="2480.78,-77.68 2471.34,-82.48 2481.72,-84.62 2480.78,-77.68"/>
</a>
</g>
</g>
<!-- Node23 -->
<g id="Node000023" class="node">
<title>Node23</title>
<g id="a_Node000023"><a xlink:href="SceneClear_8cpp.html" target="_top" xlink:title=" ">
<polygon fill="white" stroke="#666666" points="4709.5,-35.5 4590.5,-35.5 4590.5,-5.5 4709.5,-5.5 4709.5,-35.5"/>
<text text-anchor="start" x="4598.5" y="-23.5" font-family="Helvetica,sans-Serif" font-size="10.00">Source/Game/Scenes</text>
<text text-anchor="middle" x="4650" y="-12.5" font-family="Helvetica,sans-Serif" font-size="10.00">/SceneClear.cpp</text>
</a>
</g>
</g>
<!-- Node8&#45;&gt;Node23 -->
<g id="edge25_Node000008_Node000023" class="edge">
<title>Node8&#45;&gt;Node23</title>
<g id="a_edge25_Node000008_Node000023"><a xlink:title=" ">
<path fill="none" stroke="#63b8ff" d="M2481.2,-81.13C2494.01,-79.47 2507.41,-77.97 2520,-77 2976.71,-41.79 4127.83,-107.84 4581,-41 4589.5,-39.75 4598.43,-37.75 4606.94,-35.51"/>
<polygon fill="#63b8ff" stroke="#63b8ff" points="2480.52,-77.69 2471.07,-82.5 2481.45,-84.63 2480.52,-77.69"/>
</a>
</g>
</g>
<!-- Node24 -->
<g id="Node000024" class="node">
<title>Node24</title>
<g id="a_Node000024"><a xlink:href="SceneFailed_8cpp.html" target="_top" xlink:title=" ">
<polygon fill="white" stroke="#666666" points="674.5,-35.5 555.5,-35.5 555.5,-5.5 674.5,-5.5 674.5,-35.5"/>
<text text-anchor="start" x="563.5" y="-23.5" font-family="Helvetica,sans-Serif" font-size="10.00">Source/Game/Scenes</text>
<text text-anchor="middle" x="615" y="-12.5" font-family="Helvetica,sans-Serif" font-size="10.00">/SceneFailed.cpp</text>
</a>
</g>
</g>
<!-- Node8&#45;&gt;Node24 -->
<g id="edge26_Node000008_Node000024" class="edge">
<title>Node8&#45;&gt;Node24</title>
<g id="a_edge26_Node000008_Node000024"><a xlink:title=" ">
<path fill="none" stroke="#63b8ff" d="M2354.37,-81.12C2341.69,-79.48 2328.44,-77.99 2316,-77 1954.16,-48.27 1041.87,-95.48 683,-41 674.74,-39.75 666.08,-37.78 657.8,-35.58"/>
<polygon fill="#63b8ff" stroke="#63b8ff" points="2354.02,-84.61 2364.39,-82.47 2354.95,-77.67 2354.02,-84.61"/>
</a>
</g>
</g>
<!-- Node25 -->
<g id="Node000025" class="node">
<title>Node25</title>
<g id="a_Node000025"><a xlink:href="SceneTest_8cpp.html" target="_top" xlink:title=" ">
<polygon fill="white" stroke="#666666" points="811.5,-35.5 692.5,-35.5 692.5,-5.5 811.5,-5.5 811.5,-35.5"/>
<text text-anchor="start" x="700.5" y="-23.5" font-family="Helvetica,sans-Serif" font-size="10.00">Source/Game/Scenes</text>
<text text-anchor="middle" x="752" y="-12.5" font-family="Helvetica,sans-Serif" font-size="10.00">/SceneTest.cpp</text>
</a>
</g>
</g>
<!-- Node8&#45;&gt;Node25 -->
<g id="edge27_Node000008_Node000025" class="edge">
<title>Node8&#45;&gt;Node25</title>
<g id="a_edge27_Node000008_Node000025"><a xlink:title=" ">
<path fill="none" stroke="#63b8ff" d="M2354.37,-81.14C2341.69,-79.5 2328.44,-78 2316,-77 1984.53,-50.35 1148.72,-91.24 820,-41 811.74,-39.74 803.08,-37.77 794.8,-35.56"/>
<polygon fill="#63b8ff" stroke="#63b8ff" points="2354.02,-84.63 2364.39,-82.49 2354.95,-77.69 2354.02,-84.63"/>
</a>
</g>
</g>
<!-- Node26 -->
<g id="Node000026" class="node">
<title>Node26</title>
<g id="a_Node000026"><a xlink:href="SceneTitle_8cpp.html" target="_top" xlink:title=" ">
<polygon fill="white" stroke="#666666" points="948.5,-35.5 829.5,-35.5 829.5,-5.5 948.5,-5.5 948.5,-35.5"/>
<text text-anchor="start" x="837.5" y="-23.5" font-family="Helvetica,sans-Serif" font-size="10.00">Source/Game/Scenes</text>
<text text-anchor="middle" x="889" y="-12.5" font-family="Helvetica,sans-Serif" font-size="10.00">/SceneTitle.cpp</text>
</a>
</g>
</g>
<!-- Node8&#45;&gt;Node26 -->
<g id="edge28_Node000008_Node000026" class="edge">
<title>Node8&#45;&gt;Node26</title>
<g id="a_edge28_Node000008_Node000026"><a xlink:title=" ">
<path fill="none" stroke="#63b8ff" d="M2354.15,-81.14C2341.53,-79.5 2328.37,-78.01 2316,-77 2015.12,-52.44 1256.45,-86.4 958,-41 949.63,-39.73 940.84,-37.75 932.44,-35.54"/>
<polygon fill="#63b8ff" stroke="#63b8ff" points="2353.75,-84.62 2364.13,-82.48 2354.68,-77.68 2353.75,-84.62"/>
</a>
</g>
</g>
<!-- Node27 -->
<g id="Node000027" class="node">
<title>Node27</title>
<g id="a_Node000027"><a xlink:href="ButtonEventManager_8cpp.html" target="_top" xlink:title=" ">
<polygon fill="white" stroke="#666666" points="1119,-35.5 967,-35.5 967,-5.5 1119,-5.5 1119,-35.5"/>
<text text-anchor="start" x="975" y="-23.5" font-family="Helvetica,sans-Serif" font-size="10.00">Source/Objects/ButtonEvent</text>
<text text-anchor="middle" x="1043" y="-12.5" font-family="Helvetica,sans-Serif" font-size="10.00">Manager.cpp</text>
</a>
</g>
</g>
<!-- Node8&#45;&gt;Node27 -->
<g id="edge29_Node000008_Node000027" class="edge">
<title>Node8&#45;&gt;Node27</title>
<g id="a_edge29_Node000008_Node000027"><a xlink:title=" ">
<path fill="none" stroke="#63b8ff" d="M2353.93,-81.15C2341.38,-79.52 2328.3,-78.03 2316,-77 1789.59,-33.02 1651.93,-108.38 1128,-41 1117.94,-39.71 1107.32,-37.75 1097.13,-35.58"/>
<polygon fill="#63b8ff" stroke="#63b8ff" points="2353.48,-84.62 2363.86,-82.48 2354.41,-77.68 2353.48,-84.62"/>
</a>
</g>
</g>
<!-- Node28 -->
<g id="Node000028" class="node">
<title>Node28</title>
<g id="a_Node000028"><a xlink:href="ObjectManager_8cpp.html" target="_top" xlink:title=" ">
<polygon fill="white" stroke="#666666" points="1323,-30 1137,-30 1137,-11 1323,-11 1323,-30"/>
<text text-anchor="middle" x="1230" y="-18" font-family="Helvetica,sans-Serif" font-size="10.00">Source/Objects/ObjectManager.cpp</text>
</a>
</g>
</g>
<!-- Node8&#45;&gt;Node28 -->
<g id="edge30_Node000008_Node000028" class="edge">
<title>Node8&#45;&gt;Node28</title>
<g id="a_edge30_Node000008_Node000028"><a xlink:title=" ">
<path fill="none" stroke="#63b8ff" d="M2353.13,-81.11C2340.82,-79.51 2328.03,-78.04 2316,-77 1880.01,-39.2 1766.85,-90.23 1332,-41 1310.32,-38.55 1286.35,-34.06 1267.1,-30"/>
<polygon fill="#63b8ff" stroke="#63b8ff" points="2352.95,-84.61 2363.32,-82.47 2353.88,-77.68 2352.95,-84.61"/>
</a>
</g>
</g>
<!-- Node8&#45;&gt;Node29 -->
<g id="edge31_Node000008_Node000029" class="edge">
<title>Node8&#45;&gt;Node29</title>
<g id="a_edge31_Node000008_Node000029"><a xlink:title=" ">
<path fill="none" stroke="#63b8ff" d="M2481.2,-81.12C2494.01,-79.46 2507.41,-77.96 2520,-77 3007.31,-39.7 4233.36,-95.92 4719,-41 4730.03,-39.75 4741.69,-37.79 4752.87,-35.58"/>
<polygon fill="#63b8ff" stroke="#63b8ff" points="2480.52,-77.68 2471.07,-82.49 2481.45,-84.62 2480.52,-77.68"/>
</a>
</g>
</g>
<!-- Node8&#45;&gt;Node30 -->
<g id="edge32_Node000008_Node000030" class="edge">
<title>Node8&#45;&gt;Node30</title>
<g id="a_edge32_Node000008_Node000030"><a xlink:title=" ">
<path fill="none" stroke="#63b8ff" d="M2501.49,-81.49C2520.07,-79.69 2539.69,-78.05 2558,-77 3078.53,-47.03 4385.88,-99.33 4904,-41 4915.03,-39.76 4926.7,-37.8 4937.88,-35.59"/>
<polygon fill="#63b8ff" stroke="#63b8ff" points="2500.9,-78.03 2491.29,-82.49 2501.59,-84.99 2500.9,-78.03"/>
</a>
</g>
</g>
<!-- Node31 -->
<g id="Node000031" class="node">
<title>Node31</title>
<g id="a_Node000031"><a xlink:href="ForwardRenderPass_8cpp.html" target="_top" xlink:title=" ">
<polygon fill="white" stroke="#666666" points="1485,-35.5 1341,-35.5 1341,-5.5 1485,-5.5 1485,-35.5"/>
<text text-anchor="start" x="1349" y="-23.5" font-family="Helvetica,sans-Serif" font-size="10.00">Source/Rendering/Forward</text>
<text text-anchor="middle" x="1413" y="-12.5" font-family="Helvetica,sans-Serif" font-size="10.00">RenderPass.cpp</text>
</a>
</g>
</g>
<!-- Node8&#45;&gt;Node31 -->
<g id="edge33_Node000008_Node000031" class="edge">
<title>Node8&#45;&gt;Node31</title>
<g id="a_edge33_Node000008_Node000031"><a xlink:title=" ">
<path fill="none" stroke="#63b8ff" d="M2352.7,-81.12C2340.52,-79.54 2327.89,-78.07 2316,-77 1951.8,-44.1 1856.11,-92.03 1494,-41 1484.55,-39.67 1474.58,-37.73 1465,-35.58"/>
<polygon fill="#63b8ff" stroke="#63b8ff" points="2352.41,-84.62 2362.79,-82.47 2353.34,-77.68 2352.41,-84.62"/>
</a>
</g>
</g>
<!-- Node32 -->
<g id="Node000032" class="node">
<title>Node32</title>
<g id="a_Node000032"><a xlink:href="LightManager_8cpp.html" target="_top" xlink:title=" ">
<polygon fill="white" stroke="#666666" points="1694.5,-30 1503.5,-30 1503.5,-11 1694.5,-11 1694.5,-30"/>
<text text-anchor="middle" x="1599" y="-18" font-family="Helvetica,sans-Serif" font-size="10.00">Source/Rendering/LightManager.cpp</text>
</a>
</g>
</g>
<!-- Node8&#45;&gt;Node32 -->
<g id="edge34_Node000008_Node000032" class="edge">
<title>Node8&#45;&gt;Node32</title>
<g id="a_edge34_Node000008_Node000032"><a xlink:title=" ">
<path fill="none" stroke="#63b8ff" d="M2351.47,-81.11C2339.67,-79.57 2327.49,-78.12 2316,-77 2044.83,-50.45 1974.47,-73.94 1704,-41 1682.28,-38.36 1658.28,-34.01 1638.71,-30.08"/>
<polygon fill="#63b8ff" stroke="#63b8ff" points="2351.33,-84.62 2361.71,-82.48 2352.26,-77.68 2351.33,-84.62"/>
</a>
</g>
</g>
<!-- Node33 -->
<g id="Node000033" class="node">
<title>Node33</title>
<g id="a_Node000033"><a xlink:href="ShadowMapPass_8cpp.html" target="_top" xlink:title=" ">
<polygon fill="white" stroke="#666666" points="1877,-35.5 1713,-35.5 1713,-5.5 1877,-5.5 1877,-35.5"/>
<text text-anchor="start" x="1721" y="-23.5" font-family="Helvetica,sans-Serif" font-size="10.00">Source/Rendering/ShadowMap</text>
<text text-anchor="middle" x="1795" y="-12.5" font-family="Helvetica,sans-Serif" font-size="10.00">Pass.cpp</text>
</a>
</g>
</g>
<!-- Node8&#45;&gt;Node33 -->
<g id="edge35_Node000008_Node000033" class="edge">
<title>Node8&#45;&gt;Node33</title>
<g id="a_edge35_Node000008_Node000033"><a xlink:title=" ">
<path fill="none" stroke="#63b8ff" d="M2349.62,-81.11C2338.4,-79.63 2326.88,-78.2 2316,-77 2125.38,-55.95 2075.7,-69.15 1886,-41 1876.09,-39.53 1865.64,-37.63 1855.5,-35.59"/>
<polygon fill="#63b8ff" stroke="#63b8ff" points="2349.43,-84.61 2359.81,-82.47 2350.36,-77.68 2349.43,-84.61"/>
</a>
</g>
</g>
<!-- Node34 -->
<g id="Node000034" class="node">
<title>Node34</title>
<g id="a_Node000034"><a xlink:href="Mesh_8cpp.html" target="_top" xlink:title=" ">
<polygon fill="white" stroke="#666666" points="2047,-30 1895,-30 1895,-11 2047,-11 2047,-30"/>
<text text-anchor="middle" x="1971" y="-18" font-family="Helvetica,sans-Serif" font-size="10.00">Source/Resources/Mesh.cpp</text>
</a>
</g>
</g>
<!-- Node8&#45;&gt;Node34 -->
<g id="edge36_Node000008_Node000034" class="edge">
<title>Node8&#45;&gt;Node34</title>
<g id="a_edge36_Node000008_Node000034"><a xlink:title=" ">
<path fill="none" stroke="#63b8ff" d="M2345.95,-81.09C2241.38,-66.7 2059.55,-41.65 2056,-41 2039.17,-37.91 2020.64,-33.75 2005.18,-30.07"/>
<polygon fill="#63b8ff" stroke="#63b8ff" points="2345.75,-84.59 2356.13,-82.49 2346.7,-77.66 2345.75,-84.59"/>
</a>
</g>
</g>
</g>
</svg>

<g id="navigator" transform="translate(0 0)" fill="#404254">
  <rect fill="#f2f5e9" fill-opacity="0.5" stroke="#606060" stroke-width=".5" x="0" y="0" width="60" height="60"/>
  <use id="zoomplus" xlink:href="#zoomPlus" x="17" y="9" onmousedown="handleZoom(evt,'in')"/>
  <use id="zoomminus" xlink:href="#zoomMin" x="42" y="9" onmousedown="handleZoom(evt,'out')"/>
  <use id="reset" xlink:href="#resetDef" x="30" y="36" onmousedown="handleReset()"/>
   <use id="arrowup" xlink:href="#arrowUp" x="0" y="0" onmousedown="handlePan(0,-1)"/>
  <use id="arrowright" xlink:href="#arrowRight" x="0" y="0" onmousedown="handlePan(1,0)"/>
  <use id="arrowdown" xlink:href="#arrowDown" x="0" y="0" onmousedown="handlePan(0,1)"/>
  <use id="arrowleft" xlink:href="#arrowLeft" x="0" y="0" onmousedown="handlePan(-1,0)"/>
</g>
<svg viewBox="0 0 15 15" width="100%" height="30px" preserveAspectRatio="xMaxYMin meet">
 <g id="arrow_out" transform="scale(0.3 0.3)">
  <a xlink:href="FieldComponent_8h__dep__incl_org.svg" target="_base">
   <rect id="button" ry="5" rx="5" y="6" x="6" height="38" width="38"
        fill="#f2f5e9" fill-opacity="0.5" stroke="#606060" stroke-width="1.0"/>
   <path id="arrow"
     d="M 11.500037,31.436501 C 11.940474,20.09759 22.043105,11.32322 32.158766,21.979434 L 37.068811,17.246167 C 37.068811,17.246167 37.088388,32 37.088388,32 L 22.160133,31.978069 C 22.160133,31.978069 26.997745,27.140456 26.997745,27.140456 C 18.528582,18.264221 13.291696,25.230495 11.500037,31.436501 z"
     style="fill:#404040;"/>
  </a>
 </g>
</svg>

<style type='text/css'>
<![CDATA[
[data-mouse-over-selected='false'] { opacity: 0.7; }
[data-mouse-over-selected='true']  { opacity: 1.0; }
]]>
</style>
<script type="application/ecmascript"><![CDATA[
document.addEventListener('DOMContentLoaded', (event) => {
  highlightEdges();
  highlightAdjacentNodes();
});
]]></script>
</svg>
