<?xml version="1.0" encoding="UTF-8" standalone="no"?>
<!DOCTYPE svg PUBLIC "-//W3C//DTD SVG 1.1//EN"
 "http://www.w3.org/Graphics/SVG/1.1/DTD/svg11.dtd">
<!-- Generated by graphviz version 2.43.0 (0)
 -->
<!-- Title: ImGui_ImplStbTrueType_FontSrcInit Pages: 1 -->
<svg width="632pt" height="138pt"
 viewBox="0.00 0.00 632.00 138.00" xmlns="http://www.w3.org/2000/svg" xmlns:xlink="http://www.w3.org/1999/xlink">
<g id="graph0" class="graph" transform="scale(1 1) rotate(0) translate(4 134)">
<title>ImGui_ImplStbTrueType_FontSrcInit</title>
<!-- Node1 -->
<g id="Node000001" class="node">
<title>Node1</title>
<g id="a_Node000001"><a xlink:title=" ">
<polygon fill="#999999" stroke="#666666" points="131,-79.5 0,-79.5 0,-49.5 131,-49.5 131,-79.5"/>
<text text-anchor="start" x="8" y="-67.5" font-family="Helvetica,sans-Serif" font-size="10.00">ImGui_ImplStbTrueType</text>
<text text-anchor="middle" x="65.5" y="-56.5" font-family="Helvetica,sans-Serif" font-size="10.00">_FontSrcInit</text>
</a>
</g>
</g>
<!-- Node2 -->
<g id="Node000002" class="node">
<title>Node2</title>
<g id="a_Node000002"><a xlink:href="imgui_8h.html#a3c856832c3fe1da8767a9353da3707e1" target="_top" xlink:title=" ">
<polygon fill="white" stroke="#666666" points="279.5,-130 208.5,-130 208.5,-111 279.5,-111 279.5,-130"/>
<text text-anchor="middle" x="244" y="-118" font-family="Helvetica,sans-Serif" font-size="10.00">IM_DELETE</text>
</a>
</g>
</g>
<!-- Node1&#45;&gt;Node2 -->
<g id="edge1_Node000001_Node000002" class="edge">
<title>Node1&#45;&gt;Node2</title>
<g id="a_edge1_Node000001_Node000002"><a xlink:title=" ">
<path fill="none" stroke="#63b8ff" d="M102.86,-79.55C121.79,-87.04 145.42,-95.89 167,-102.5 177.12,-105.6 188.13,-108.48 198.56,-110.99"/>
<polygon fill="#63b8ff" stroke="#63b8ff" points="197.78,-114.4 208.32,-113.28 199.38,-107.59 197.78,-114.4"/>
</a>
</g>
</g>
<!-- Node5 -->
<g id="Node000005" class="node">
<title>Node5</title>
<g id="a_Node000005"><a xlink:href="imstb__truetype_8h.html#a5ba17159df62ca39649e6f2231ac6e89" target="_top" xlink:title=" ">
<polygon fill="white" stroke="#666666" points="321,-93 167,-93 167,-74 321,-74 321,-93"/>
<text text-anchor="middle" x="244" y="-81" font-family="Helvetica,sans-Serif" font-size="10.00">stbtt_GetFontOffsetForIndex</text>
</a>
</g>
</g>
<!-- Node1&#45;&gt;Node5 -->
<g id="edge4_Node000001_Node000005" class="edge">
<title>Node1&#45;&gt;Node5</title>
<g id="a_edge4_Node000001_Node000005"><a xlink:title=" ">
<path fill="none" stroke="#63b8ff" d="M131.22,-71.47C139.56,-72.37 148.21,-73.3 156.83,-74.22"/>
<polygon fill="#63b8ff" stroke="#63b8ff" points="156.6,-77.72 166.92,-75.31 157.35,-70.76 156.6,-77.72"/>
</a>
</g>
</g>
<!-- Node6 -->
<g id="Node000006" class="node">
<title>Node6</title>
<g id="a_Node000006"><a xlink:href="imstb__truetype_8h.html#ac3b6bda1851d0b1a4fd53f5f353668e5" target="_top" xlink:title=" ">
<polygon fill="white" stroke="#666666" points="284.5,-56 203.5,-56 203.5,-37 284.5,-37 284.5,-56"/>
<text text-anchor="middle" x="244" y="-44" font-family="Helvetica,sans-Serif" font-size="10.00">stbtt_InitFont</text>
</a>
</g>
</g>
<!-- Node1&#45;&gt;Node6 -->
<g id="edge5_Node000001_Node000006" class="edge">
<title>Node1&#45;&gt;Node6</title>
<g id="a_edge5_Node000001_Node000006"><a xlink:title=" ">
<path fill="none" stroke="#63b8ff" d="M131.22,-57.9C151.74,-55.81 174.08,-53.53 193.36,-51.56"/>
<polygon fill="#63b8ff" stroke="#63b8ff" points="193.84,-55.03 203.43,-50.53 193.13,-48.07 193.84,-55.03"/>
</a>
</g>
</g>
<!-- Node7 -->
<g id="Node000007" class="node">
<title>Node7</title>
<g id="a_Node000007"><a xlink:href="imstb__truetype_8h.html#aad275d7211530a3d817fcd8647690b7b" target="_top" xlink:title=" ">
<polygon fill="white" stroke="#666666" points="314.5,-19 173.5,-19 173.5,0 314.5,0 314.5,-19"/>
<text text-anchor="middle" x="244" y="-7" font-family="Helvetica,sans-Serif" font-size="10.00">stbtt_ScaleForPixelHeight</text>
</a>
</g>
</g>
<!-- Node1&#45;&gt;Node7 -->
<g id="edge6_Node000001_Node000007" class="edge">
<title>Node1&#45;&gt;Node7</title>
<g id="a_edge6_Node000001_Node000007"><a xlink:title=" ">
<path fill="none" stroke="#63b8ff" d="M105.82,-49.4C124.25,-42.58 146.6,-34.69 167,-28.5 175.04,-26.06 183.64,-23.69 192.04,-21.5"/>
<polygon fill="#63b8ff" stroke="#63b8ff" points="192.95,-24.88 201.78,-19.02 191.22,-18.1 192.95,-24.88"/>
</a>
</g>
</g>
<!-- Node3 -->
<g id="Node000003" class="node">
<title>Node3</title>
<g id="a_Node000003"><a xlink:href="namespaceImGui.html#a269ec695c6e722ec3da85dae37f0675d" target="_top" xlink:title=" ">
<polygon fill="white" stroke="#666666" points="455,-130 357,-130 357,-111 455,-111 455,-130"/>
<text text-anchor="middle" x="406" y="-118" font-family="Helvetica,sans-Serif" font-size="10.00">ImGui::MemFree</text>
</a>
</g>
</g>
<!-- Node2&#45;&gt;Node3 -->
<g id="edge2_Node000002_Node000003" class="edge">
<title>Node2&#45;&gt;Node3</title>
<g id="a_edge2_Node000002_Node000003"><a xlink:title=" ">
<path fill="none" stroke="#63b8ff" d="M279.72,-120.5C299.32,-120.5 324.34,-120.5 346.86,-120.5"/>
<polygon fill="#63b8ff" stroke="#63b8ff" points="347,-124 357,-120.5 347,-117 347,-124"/>
</a>
</g>
</g>
<!-- Node4 -->
<g id="Node000004" class="node">
<title>Node4</title>
<g id="a_Node000004"><a xlink:href="namespaceImGui.html#af81dc8d88fa2e5d0996163993f90ccf8" target="_top" xlink:title=" ">
<polygon fill="white" stroke="#666666" points="624,-130 491,-130 491,-111 624,-111 624,-130"/>
<text text-anchor="middle" x="557.5" y="-118" font-family="Helvetica,sans-Serif" font-size="10.00">ImGui::DebugAllocHook</text>
</a>
</g>
</g>
<!-- Node3&#45;&gt;Node4 -->
<g id="edge3_Node000003_Node000004" class="edge">
<title>Node3&#45;&gt;Node4</title>
<g id="a_edge3_Node000003_Node000004"><a xlink:title=" ">
<path fill="none" stroke="#63b8ff" d="M455.13,-120.5C463.29,-120.5 471.93,-120.5 480.6,-120.5"/>
<polygon fill="#63b8ff" stroke="#63b8ff" points="480.76,-124 490.76,-120.5 480.76,-117 480.76,-124"/>
</a>
</g>
</g>
</g>
</svg>
