<?xml version="1.0" encoding="UTF-8" standalone="no"?>
<!DOCTYPE svg PUBLIC "-//W3C//DTD SVG 1.1//EN"
 "http://www.w3.org/Graphics/SVG/1.1/DTD/svg11.dtd">
<!-- Generated by graphviz version 2.43.0 (0)
 -->
<!-- Title: CalcWindowContentSizes Pages: 1 -->
<svg width="251pt" height="64pt"
 viewBox="0.00 0.00 251.00 64.00" xmlns="http://www.w3.org/2000/svg" xmlns:xlink="http://www.w3.org/1999/xlink">
<g id="graph0" class="graph" transform="scale(1 1) rotate(0) translate(4 60)">
<title>CalcWindowContentSizes</title>
<!-- Node1 -->
<g id="Node000001" class="node">
<title>Node1</title>
<g id="a_Node000001"><a xlink:title=" ">
<polygon fill="#999999" stroke="#666666" points="140,-37 0,-37 0,-18 140,-18 140,-37"/>
<text text-anchor="middle" x="70" y="-25" font-family="Helvetica,sans-Serif" font-size="10.00">CalcWindowContentSizes</text>
</a>
</g>
</g>
<!-- Node2 -->
<g id="Node000002" class="node">
<title>Node2</title>
<g id="a_Node000002"><a xlink:href="imgui__internal_8h.html#a0e31e48468330182a5f5e124edda5ac4" target="_top" xlink:title=" ">
<polygon fill="white" stroke="#666666" points="234.5,-56 184.5,-56 184.5,-37 234.5,-37 234.5,-56"/>
<text text-anchor="middle" x="209.5" y="-44" font-family="Helvetica,sans-Serif" font-size="10.00">ImMax</text>
</a>
</g>
</g>
<!-- Node1&#45;&gt;Node2 -->
<g id="edge1_Node000001_Node000002" class="edge">
<title>Node1&#45;&gt;Node2</title>
<g id="a_edge1_Node000001_Node000002"><a xlink:title=" ">
<path fill="none" stroke="#63b8ff" d="M140.15,-37.06C152.09,-38.71 164.01,-40.35 174.48,-41.8"/>
<polygon fill="#63b8ff" stroke="#63b8ff" points="174.02,-45.27 184.4,-43.17 174.98,-38.33 174.02,-45.27"/>
</a>
</g>
</g>
<!-- Node3 -->
<g id="Node000003" class="node">
<title>Node3</title>
<g id="a_Node000003"><a xlink:href="imgui__internal_8h.html#aa15905ef7a4f7230d9f13d43c0d1123a" target="_top" xlink:title=" ">
<polygon fill="white" stroke="#666666" points="243,-19 176,-19 176,0 243,0 243,-19"/>
<text text-anchor="middle" x="209.5" y="-7" font-family="Helvetica,sans-Serif" font-size="10.00">ImTrunc64</text>
</a>
</g>
</g>
<!-- Node1&#45;&gt;Node3 -->
<g id="edge2_Node000001_Node000003" class="edge">
<title>Node1&#45;&gt;Node3</title>
<g id="a_edge2_Node000001_Node000003"><a xlink:title=" ">
<path fill="none" stroke="#63b8ff" d="M140.15,-18.45C148.9,-17.3 157.64,-16.16 165.8,-15.09"/>
<polygon fill="#63b8ff" stroke="#63b8ff" points="166.33,-18.55 175.79,-13.78 165.42,-11.61 166.33,-18.55"/>
</a>
</g>
</g>
</g>
</svg>
