<?xml version="1.0" encoding="UTF-8" standalone="no"?>
<!DOCTYPE svg PUBLIC "-//W3C//DTD SVG 1.1//EN"
 "http://www.w3.org/Graphics/SVG/1.1/DTD/svg11.dtd">
<!-- Generated by graphviz version 2.43.0 (0)
 -->
<!-- Title: Source/Engine/Component/ParticleComponent.cpp Pages: 1 -->
<svg width="453pt" height="203pt"
 viewBox="0.00 0.00 452.70 203.00" xmlns="http://www.w3.org/2000/svg" xmlns:xlink="http://www.w3.org/1999/xlink">

<svg id="main" version="1.1" xmlns="http://www.w3.org/2000/svg" xmlns:xlink="http://www.w3.org/1999/xlink" xml:space="preserve" onload="init(evt)">
<style type="text/css"><![CDATA[
.node, .edge {opacity: 0.7;}
.node.selected, .edge.selected {opacity: 1;}
.edge:hover path { stroke: red; }
.edge:hover polygon { stroke: red; fill: red; }
]]></style>
<script type="application/ecmascript" xlink:href="svg.min.js"/>
<svg id="graph" class="graph">
<g id="graph0" class="graph" transform="scale(1 1) rotate(0) translate(4 199)">
<title>Source/Engine/Component/ParticleComponent.cpp</title>
<!-- Node1 -->
<g id="Node000001" class="node">
<title>Node1</title>
<g id="a_Node000001"><a xlink:title=" ">
<polygon fill="#999999" stroke="#666666" points="325.7,-195 180.7,-195 180.7,-165 325.7,-165 325.7,-195"/>
<text text-anchor="start" x="188.7" y="-183" font-family="Helvetica,sans-Serif" font-size="10.00">Source/Engine/Component</text>
<text text-anchor="middle" x="253.2" y="-172" font-family="Helvetica,sans-Serif" font-size="10.00">/ParticleComponent.cpp</text>
</a>
</g>
</g>
<!-- Node2 -->
<g id="Node000002" class="node">
<title>Node2</title>
<g id="a_Node000002"><a xlink:href="ParticleComponent_8h.html" target="_top" xlink:title=" ">
<polygon fill="white" stroke="#666666" points="369.2,-129 251.2,-129 251.2,-110 369.2,-110 369.2,-129"/>
<text text-anchor="middle" x="310.2" y="-117" font-family="Helvetica,sans-Serif" font-size="10.00">ParticleComponent.h</text>
</a>
</g>
</g>
<!-- Node1&#45;&gt;Node2 -->
<g id="edge1_Node000001_Node000002" class="edge">
<title>Node1&#45;&gt;Node2</title>
<g id="a_edge1_Node000001_Node000002"><a xlink:title=" ">
<path fill="none" stroke="#63b8ff" d="M267,-164.84C275.28,-156.35 285.83,-145.52 294.43,-136.69"/>
<polygon fill="#63b8ff" stroke="#63b8ff" points="297.19,-138.87 301.66,-129.27 292.18,-133.99 297.19,-138.87"/>
</a>
</g>
</g>
<!-- Node6 -->
<g id="Node000006" class="node">
<title>Node6</title>
<g id="a_Node000006"><a xlink:href="Object_8h.html" target="_top" xlink:title=" ">
<polygon fill="white" stroke="#666666" points="136.7,-129 79.7,-129 79.7,-110 136.7,-110 136.7,-129"/>
<text text-anchor="middle" x="108.2" y="-117" font-family="Helvetica,sans-Serif" font-size="10.00">Object.h</text>
</a>
</g>
</g>
<!-- Node1&#45;&gt;Node6 -->
<g id="edge5_Node000001_Node000006" class="edge">
<title>Node1&#45;&gt;Node6</title>
<g id="a_edge5_Node000001_Node000006"><a xlink:title=" ">
<path fill="none" stroke="#63b8ff" d="M218.47,-164.99C194.28,-155.23 162.3,-142.33 139.02,-132.93"/>
<polygon fill="#63b8ff" stroke="#63b8ff" points="140.2,-129.63 129.62,-129.14 137.58,-136.13 140.2,-129.63"/>
</a>
</g>
</g>
<!-- Node9 -->
<g id="Node000009" class="node">
<title>Node9</title>
<g id="a_Node000009"><a xlink:href="Transform_8h.html" target="_top" xlink:title=" ">
<polygon fill="white" stroke="#666666" points="233.2,-129 159.2,-129 159.2,-110 233.2,-110 233.2,-129"/>
<text text-anchor="middle" x="196.2" y="-117" font-family="Helvetica,sans-Serif" font-size="10.00">Transform.h</text>
</a>
</g>
</g>
<!-- Node1&#45;&gt;Node9 -->
<g id="edge10_Node000001_Node000009" class="edge">
<title>Node1&#45;&gt;Node9</title>
<g id="a_edge10_Node000001_Node000009"><a xlink:title=" ">
<path fill="none" stroke="#63b8ff" d="M239.41,-164.84C231.13,-156.35 220.58,-145.52 211.98,-136.69"/>
<polygon fill="#63b8ff" stroke="#63b8ff" points="214.23,-133.99 204.75,-129.27 209.22,-138.87 214.23,-133.99"/>
</a>
</g>
</g>
<!-- Node11 -->
<g id="Node000011" class="node">
<title>Node11</title>
<g id="a_Node000011"><a xlink:title=" ">
<polygon fill="#e0e0e0" stroke="#999999" points="436.7,-129 387.7,-129 387.7,-110 436.7,-110 436.7,-129"/>
<text text-anchor="middle" x="412.2" y="-117" font-family="Helvetica,sans-Serif" font-size="10.00">cstdlib</text>
</a>
</g>
</g>
<!-- Node1&#45;&gt;Node11 -->
<g id="edge13_Node000001_Node000011" class="edge">
<title>Node1&#45;&gt;Node11</title>
<g id="a_edge13_Node000001_Node000011"><a xlink:title=" ">
<path fill="none" stroke="#63b8ff" d="M291.29,-164.99C318.05,-155.14 353.51,-142.1 379.1,-132.68"/>
<polygon fill="#63b8ff" stroke="#63b8ff" points="380.55,-135.88 388.72,-129.14 378.13,-129.31 380.55,-135.88"/>
</a>
</g>
</g>
<!-- Node3 -->
<g id="Node000003" class="node">
<title>Node3</title>
<g id="a_Node000003"><a xlink:href="Component_8h.html" target="_top" xlink:title=" ">
<polygon fill="white" stroke="#666666" points="237.2,-74 155.2,-74 155.2,-55 237.2,-55 237.2,-74"/>
<text text-anchor="middle" x="196.2" y="-62" font-family="Helvetica,sans-Serif" font-size="10.00">Component.h</text>
</a>
</g>
</g>
<!-- Node2&#45;&gt;Node3 -->
<g id="edge2_Node000002_Node000003" class="edge">
<title>Node2&#45;&gt;Node3</title>
<g id="a_edge2_Node000002_Node000003"><a xlink:title=" ">
<path fill="none" stroke="#63b8ff" d="M291.89,-109.98C273.55,-101.46 245.09,-88.23 223.98,-78.41"/>
<polygon fill="#63b8ff" stroke="#63b8ff" points="225.4,-75.21 214.85,-74.17 222.45,-81.56 225.4,-75.21"/>
</a>
</g>
</g>
<!-- Node5 -->
<g id="Node000005" class="node">
<title>Node5</title>
<g id="a_Node000005"><a xlink:title=" ">
<polygon fill="#e0e0e0" stroke="#999999" points="444.7,-74 359.7,-74 359.7,-55 444.7,-55 444.7,-74"/>
<text text-anchor="middle" x="402.2" y="-62" font-family="Helvetica,sans-Serif" font-size="10.00">directxmath.h</text>
</a>
</g>
</g>
<!-- Node2&#45;&gt;Node5 -->
<g id="edge4_Node000002_Node000005" class="edge">
<title>Node2&#45;&gt;Node5</title>
<g id="a_edge4_Node000002_Node000005"><a xlink:title=" ">
<path fill="none" stroke="#63b8ff" d="M324.99,-109.98C339.39,-101.69 361.51,-88.94 378.4,-79.22"/>
<polygon fill="#63b8ff" stroke="#63b8ff" points="380.24,-82.19 387.15,-74.17 376.74,-76.13 380.24,-82.19"/>
</a>
</g>
</g>
<!-- Node4 -->
<g id="Node000004" class="node">
<title>Node4</title>
<g id="a_Node000004"><a xlink:title=" ">
<polygon fill="#e0e0e0" stroke="#999999" points="112.2,-19 68.2,-19 68.2,0 112.2,0 112.2,-19"/>
<text text-anchor="middle" x="90.2" y="-7" font-family="Helvetica,sans-Serif" font-size="10.00">string</text>
</a>
</g>
</g>
<!-- Node3&#45;&gt;Node4 -->
<g id="edge3_Node000003_Node000004" class="edge">
<title>Node3&#45;&gt;Node4</title>
<g id="a_edge3_Node000003_Node000004"><a xlink:title=" ">
<path fill="none" stroke="#63b8ff" d="M179.17,-54.98C162.27,-46.54 136.14,-33.47 116.56,-23.68"/>
<polygon fill="#63b8ff" stroke="#63b8ff" points="118.05,-20.51 107.54,-19.17 114.92,-26.77 118.05,-20.51"/>
</a>
</g>
</g>
<!-- Node6&#45;&gt;Node3 -->
<g id="edge9_Node000006_Node000003" class="edge">
<title>Node6&#45;&gt;Node3</title>
<g id="a_edge9_Node000006_Node000003"><a xlink:title=" ">
<path fill="none" stroke="#63b8ff" d="M122.34,-109.98C135.99,-101.77 156.89,-89.18 172.98,-79.49"/>
<polygon fill="#63b8ff" stroke="#63b8ff" points="175.05,-82.33 181.81,-74.17 171.44,-76.33 175.05,-82.33"/>
</a>
</g>
</g>
<!-- Node6&#45;&gt;Node4 -->
<g id="edge6_Node000006_Node000004" class="edge">
<title>Node6&#45;&gt;Node4</title>
<g id="a_edge6_Node000006_Node000004"><a xlink:title=" ">
<path fill="none" stroke="#63b8ff" d="M79.28,-114.87C54.67,-110.08 20.75,-99.08 4.2,-74 -12.58,-48.56 27.56,-29.63 58.5,-19.32"/>
<polygon fill="#63b8ff" stroke="#63b8ff" points="59.65,-22.63 68.14,-16.28 57.55,-15.95 59.65,-22.63"/>
</a>
</g>
</g>
<!-- Node7 -->
<g id="Node000007" class="node">
<title>Node7</title>
<g id="a_Node000007"><a xlink:title=" ">
<polygon fill="#e0e0e0" stroke="#999999" points="60.7,-74 13.7,-74 13.7,-55 60.7,-55 60.7,-74"/>
<text text-anchor="middle" x="37.2" y="-62" font-family="Helvetica,sans-Serif" font-size="10.00">vector</text>
</a>
</g>
</g>
<!-- Node6&#45;&gt;Node7 -->
<g id="edge7_Node000006_Node000007" class="edge">
<title>Node6&#45;&gt;Node7</title>
<g id="a_edge7_Node000006_Node000007"><a xlink:title=" ">
<path fill="none" stroke="#63b8ff" d="M96.8,-109.98C86.1,-102 69.86,-89.88 57.04,-80.31"/>
<polygon fill="#63b8ff" stroke="#63b8ff" points="58.93,-77.35 48.82,-74.17 54.74,-82.96 58.93,-77.35"/>
</a>
</g>
</g>
<!-- Node8 -->
<g id="Node000008" class="node">
<title>Node8</title>
<g id="a_Node000008"><a xlink:title=" ">
<polygon fill="#e0e0e0" stroke="#999999" points="137.2,-74 79.2,-74 79.2,-55 137.2,-55 137.2,-74"/>
<text text-anchor="middle" x="108.2" y="-62" font-family="Helvetica,sans-Serif" font-size="10.00">memory</text>
</a>
</g>
</g>
<!-- Node6&#45;&gt;Node8 -->
<g id="edge8_Node000006_Node000008" class="edge">
<title>Node6&#45;&gt;Node8</title>
<g id="a_edge8_Node000006_Node000008"><a xlink:title=" ">
<path fill="none" stroke="#63b8ff" d="M108.2,-109.75C108.2,-102.8 108.2,-92.85 108.2,-84.13"/>
<polygon fill="#63b8ff" stroke="#63b8ff" points="111.7,-84.09 108.2,-74.09 104.7,-84.09 111.7,-84.09"/>
</a>
</g>
</g>
<!-- Node9&#45;&gt;Node3 -->
<g id="edge12_Node000009_Node000003" class="edge">
<title>Node9&#45;&gt;Node3</title>
<g id="a_edge12_Node000009_Node000003"><a xlink:title=" ">
<path fill="none" stroke="#63b8ff" d="M196.2,-109.75C196.2,-102.8 196.2,-92.85 196.2,-84.13"/>
<polygon fill="#63b8ff" stroke="#63b8ff" points="199.7,-84.09 196.2,-74.09 192.7,-84.09 199.7,-84.09"/>
</a>
</g>
</g>
<!-- Node10 -->
<g id="Node000010" class="node">
<title>Node10</title>
<g id="a_Node000010"><a xlink:title=" ">
<polygon fill="#e0e0e0" stroke="#999999" points="341.2,-74 255.2,-74 255.2,-55 341.2,-55 341.2,-74"/>
<text text-anchor="middle" x="298.2" y="-62" font-family="Helvetica,sans-Serif" font-size="10.00">DirectXMath.h</text>
</a>
</g>
</g>
<!-- Node9&#45;&gt;Node10 -->
<g id="edge11_Node000009_Node000010" class="edge">
<title>Node9&#45;&gt;Node10</title>
<g id="a_edge11_Node000009_Node000010"><a xlink:title=" ">
<path fill="none" stroke="#63b8ff" d="M212.59,-109.98C228.78,-101.57 253.77,-88.59 272.58,-78.81"/>
<polygon fill="#63b8ff" stroke="#63b8ff" points="274.26,-81.89 281.52,-74.17 271.03,-75.68 274.26,-81.89"/>
</a>
</g>
</g>
</g>
</svg>
</svg>

<style type='text/css'>
<![CDATA[
[data-mouse-over-selected='false'] { opacity: 0.7; }
[data-mouse-over-selected='true']  { opacity: 1.0; }
]]>
</style>
<script type="application/ecmascript"><![CDATA[
document.addEventListener('DOMContentLoaded', (event) => {
  highlightEdges();
  highlightAdjacentNodes();
});
]]></script>
</svg>
