<?xml version="1.0" encoding="UTF-8" standalone="no"?>
<!DOCTYPE svg PUBLIC "-//W3C//DTD SVG 1.1//EN"
 "http://www.w3.org/Graphics/SVG/1.1/DTD/svg11.dtd">
<!-- Generated by graphviz version 2.43.0 (0)
 -->
<!-- Title: nlohmann::detail::is_constructible_object_type&lt; BasicJsonType, ConstructibleObjectType &gt; Pages: 1 -->
<svg width="472pt" height="71pt"
 viewBox="0.00 0.00 472.00 71.00" xmlns="http://www.w3.org/2000/svg" xmlns:xlink="http://www.w3.org/1999/xlink">
<g id="graph0" class="graph" transform="scale(1 1) rotate(0) translate(4 67)">
<title>nlohmann::detail::is_constructible_object_type&lt; BasicJsonType, ConstructibleObjectType &gt;</title>
<!-- Node1 -->
<g id="Node000001" class="node">
<title>Node1</title>
<g id="a_Node000001"><a xlink:title=" ">
<polygon fill="#999999" stroke="#666666" points="464,-57.5 315,-57.5 315,-5.5 464,-5.5 464,-57.5"/>
<text text-anchor="start" x="323" y="-45.5" font-family="Helvetica,sans-Serif" font-size="10.00">nlohmann::detail::is</text>
<text text-anchor="start" x="323" y="-34.5" font-family="Helvetica,sans-Serif" font-size="10.00">_constructible_object</text>
<text text-anchor="start" x="323" y="-23.5" font-family="Helvetica,sans-Serif" font-size="10.00">_type&lt; BasicJsonType,</text>
<text text-anchor="middle" x="389.5" y="-12.5" font-family="Helvetica,sans-Serif" font-size="10.00"> ConstructibleObjectType &gt;</text>
</a>
</g>
</g>
<!-- Node2 -->
<g id="Node000002" class="node">
<title>Node2</title>
<g id="a_Node000002"><a xlink:href="structnlohmann_1_1detail_1_1is__constructible__object__type__impl.html" target="_top" xlink:title=" ">
<polygon fill="white" stroke="#666666" points="279,-63 125,-63 125,0 279,0 279,-63"/>
<text text-anchor="start" x="133" y="-51" font-family="Helvetica,sans-Serif" font-size="10.00">nlohmann::detail::is</text>
<text text-anchor="start" x="133" y="-40" font-family="Helvetica,sans-Serif" font-size="10.00">_constructible_object</text>
<text text-anchor="start" x="133" y="-29" font-family="Helvetica,sans-Serif" font-size="10.00">_type_impl&lt; BasicJsonType,</text>
<text text-anchor="start" x="133" y="-18" font-family="Helvetica,sans-Serif" font-size="10.00"> ConstructibleObjectType,</text>
<text text-anchor="middle" x="202" y="-7" font-family="Helvetica,sans-Serif" font-size="10.00"> typename &gt;</text>
</a>
</g>
</g>
<!-- Node2&#45;&gt;Node1 -->
<g id="edge1_Node000001_Node000002" class="edge">
<title>Node2&#45;&gt;Node1</title>
<g id="a_edge1_Node000001_Node000002"><a xlink:title=" ">
<path fill="none" stroke="#63b8ff" d="M289.27,-31.5C297.85,-31.5 306.5,-31.5 314.93,-31.5"/>
<polygon fill="#63b8ff" stroke="#63b8ff" points="289.25,-28 279.25,-31.5 289.25,-35 289.25,-28"/>
</a>
</g>
</g>
<!-- Node3 -->
<g id="Node000003" class="node">
<title>Node3</title>
<g id="a_Node000003"><a xlink:title=" ">
<polygon fill="white" stroke="#666666" points="89,-41 0,-41 0,-22 89,-22 89,-41"/>
<text text-anchor="middle" x="44.5" y="-29" font-family="Helvetica,sans-Serif" font-size="10.00">std::false_type</text>
</a>
</g>
</g>
<!-- Node3&#45;&gt;Node2 -->
<g id="edge2_Node000002_Node000003" class="edge">
<title>Node3&#45;&gt;Node2</title>
<g id="a_edge2_Node000002_Node000003"><a xlink:title=" ">
<path fill="none" stroke="#63b8ff" d="M99.42,-31.5C107.67,-31.5 116.3,-31.5 124.91,-31.5"/>
<polygon fill="#63b8ff" stroke="#63b8ff" points="99.23,-28 89.23,-31.5 99.23,-35 99.23,-28"/>
</a>
</g>
</g>
</g>
</svg>
